<?xml version="1.0" standalone="no"?>
<!DOCTYPE svg PUBLIC "-//W3C//DTD SVG 1.1//EN" "http://www.w3.org/Graphics/SVG/1.1/DTD/svg11.dtd">
<svg version="1.1" width="1200" height="1142" onload="init(evt)" viewBox="0 0 1200 1142" xmlns="http://www.w3.org/2000/svg" xmlns:xlink="http://www.w3.org/1999/xlink">
<style type="text/css">
	text { font-family:Verdana; font-size:12px; fill:rgb(0,0,0); }
	#search { opacity:0.1; cursor:pointer; }
	#search:hover, #search.show { opacity:1; }
	#subtitle { text-anchor:middle; font-color:rgb(160,160,160); }
	#title { text-anchor:middle; font-size:17px}
	#unzoom { cursor:pointer; }
	#frames > *:hover { stroke:black; stroke-width:0.5; cursor:pointer; }
	.hide { display:none; }
	.parent { opacity:0.5; }
</style>
<script type="text/ecmascript">
<![CDATA[
	"use strict";
	var details, searchbtn, unzoombtn, matchedtxt, svg, searching;
	function init(evt) {
		details = document.getElementById("details").firstChild;
		searchbtn = document.getElementById("search");
		unzoombtn = document.getElementById("unzoom");
		matchedtxt = document.getElementById("matched");
		svg = document.getElementsByTagName("svg")[0];
		searching = 0;
	}

	window.addEventListener("click", function(e) {
		var target = find_group(e.target);
		if (target) {
			if (target.nodeName == "a") {
				if (e.ctrlKey === false) return;
				e.preventDefault();
			}
			if (target.classList.contains("parent")) unzoom();
			zoom(target);
		}
		else if (e.target.id == "unzoom") unzoom();
		else if (e.target.id == "search") search_prompt();
	}, false)

	// mouse-over for info
	// show
	window.addEventListener("mouseover", function(e) {
		var target = find_group(e.target);
		if (target) details.nodeValue = "Function: " + g_to_text(target);
	}, false)

	// clear
	window.addEventListener("mouseout", function(e) {
		var target = find_group(e.target);
		if (target) details.nodeValue = ' ';
	}, false)

	// ctrl-F for search
	window.addEventListener("keydown",function (e) {
		if (e.keyCode === 114 || (e.ctrlKey && e.keyCode === 70)) {
			e.preventDefault();
			search_prompt();
		}
	}, false)

	// functions
	function find_child(node, selector) {
		var children = node.querySelectorAll(selector);
		if (children.length) return children[0];
		return;
	}
	function find_group(node) {
		var parent = node.parentElement;
		if (!parent) return;
		if (parent.id == "frames") return node;
		return find_group(parent);
	}
	function orig_save(e, attr, val) {
		if (e.attributes["_orig_" + attr] != undefined) return;
		if (e.attributes[attr] == undefined) return;
		if (val == undefined) val = e.attributes[attr].value;
		e.setAttribute("_orig_" + attr, val);
	}
	function orig_load(e, attr) {
		if (e.attributes["_orig_"+attr] == undefined) return;
		e.attributes[attr].value = e.attributes["_orig_" + attr].value;
		e.removeAttribute("_orig_"+attr);
	}
	function g_to_text(e) {
		var text = find_child(e, "title").firstChild.nodeValue;
		return (text)
	}
	function g_to_func(e) {
		var func = g_to_text(e);
		// if there's any manipulation we want to do to the function
		// name before it's searched, do it here before returning.
		return (func);
	}
	function update_text(e) {
		var r = find_child(e, "rect");
		var t = find_child(e, "text");
		var w = parseFloat(r.attributes.width.value) -3;
		var txt = find_child(e, "title").textContent.replace(/\([^(]*\)$/,"");
		t.attributes.x.value = parseFloat(r.attributes.x.value) + 3;

		// Smaller than this size won't fit anything
		if (w < 2 * 12 * 0.59) {
			t.textContent = "";
			return;
		}

		t.textContent = txt;
		// Fit in full text width
		if (/^ *$/.test(txt) || t.getSubStringLength(0, txt.length) < w)
			return;

		for (var x = txt.length - 2; x > 0; x--) {
			if (t.getSubStringLength(0, x + 2) <= w) {
				t.textContent = txt.substring(0, x) + "..";
				return;
			}
		}
		t.textContent = "";
	}

	// zoom
	function zoom_reset(e) {
		if (e.attributes != undefined) {
			orig_load(e, "x");
			orig_load(e, "width");
		}
		if (e.childNodes == undefined) return;
		for (var i = 0, c = e.childNodes; i < c.length; i++) {
			zoom_reset(c[i]);
		}
	}
	function zoom_child(e, x, ratio) {
		if (e.attributes != undefined) {
			if (e.attributes.x != undefined) {
				orig_save(e, "x");
				e.attributes.x.value = (parseFloat(e.attributes.x.value) - x - 10) * ratio + 10;
				if (e.tagName == "text")
					e.attributes.x.value = find_child(e.parentNode, "rect[x]").attributes.x.value + 3;
			}
			if (e.attributes.width != undefined) {
				orig_save(e, "width");
				e.attributes.width.value = parseFloat(e.attributes.width.value) * ratio;
			}
		}

		if (e.childNodes == undefined) return;
		for (var i = 0, c = e.childNodes; i < c.length; i++) {
			zoom_child(c[i], x - 10, ratio);
		}
	}
	function zoom_parent(e) {
		if (e.attributes) {
			if (e.attributes.x != undefined) {
				orig_save(e, "x");
				e.attributes.x.value = 10;
			}
			if (e.attributes.width != undefined) {
				orig_save(e, "width");
				e.attributes.width.value = parseInt(svg.width.baseVal.value) - (10 * 2);
			}
		}
		if (e.childNodes == undefined) return;
		for (var i = 0, c = e.childNodes; i < c.length; i++) {
			zoom_parent(c[i]);
		}
	}
	function zoom(node) {
		var attr = find_child(node, "rect").attributes;
		var width = parseFloat(attr.width.value);
		var xmin = parseFloat(attr.x.value);
		var xmax = parseFloat(xmin + width);
		var ymin = parseFloat(attr.y.value);
		var ratio = (svg.width.baseVal.value - 2 * 10) / width;

		// XXX: Workaround for JavaScript float issues (fix me)
		var fudge = 0.0001;

		unzoombtn.classList.remove("hide");

		var el = document.getElementById("frames").children;
		for (var i = 0; i < el.length; i++) {
			var e = el[i];
			var a = find_child(e, "rect").attributes;
			var ex = parseFloat(a.x.value);
			var ew = parseFloat(a.width.value);
			var upstack;
			// Is it an ancestor
			if (0 == 0) {
				upstack = parseFloat(a.y.value) > ymin;
			} else {
				upstack = parseFloat(a.y.value) < ymin;
			}
			if (upstack) {
				// Direct ancestor
				if (ex <= xmin && (ex+ew+fudge) >= xmax) {
					e.classList.add("parent");
					zoom_parent(e);
					update_text(e);
				}
				// not in current path
				else
					e.classList.add("hide");
			}
			// Children maybe
			else {
				// no common path
				if (ex < xmin || ex + fudge >= xmax) {
					e.classList.add("hide");
				}
				else {
					zoom_child(e, xmin, ratio);
					update_text(e);
				}
			}
		}
	}
	function unzoom() {
		unzoombtn.classList.add("hide");
		var el = document.getElementById("frames").children;
		for(var i = 0; i < el.length; i++) {
			el[i].classList.remove("parent");
			el[i].classList.remove("hide");
			zoom_reset(el[i]);
			update_text(el[i]);
		}
	}

	// search
	function reset_search() {
		var el = document.querySelectorAll("#frames rect");
		for (var i = 0; i < el.length; i++) {
			orig_load(el[i], "fill")
		}
	}
	function search_prompt() {
		if (!searching) {
			var term = prompt("Enter a search term (regexp " +
			    "allowed, eg: ^ext4_)", "");
			if (term != null) {
				search(term)
			}
		} else {
			reset_search();
			searching = 0;
			searchbtn.classList.remove("show");
			searchbtn.firstChild.nodeValue = "Search"
			matchedtxt.classList.add("hide");
			matchedtxt.firstChild.nodeValue = ""
		}
	}
	function search(term) {
		var re = new RegExp(term);
		var el = document.getElementById("frames").children;
		var matches = new Object();
		var maxwidth = 0;
		for (var i = 0; i < el.length; i++) {
			var e = el[i];
			var func = g_to_func(e);
			var rect = find_child(e, "rect");
			if (func == null || rect == null)
				continue;

			// Save max width. Only works as we have a root frame
			var w = parseFloat(rect.attributes.width.value);
			if (w > maxwidth)
				maxwidth = w;

			if (func.match(re)) {
				// highlight
				var x = parseFloat(rect.attributes.x.value);
				orig_save(rect, "fill");
				rect.attributes.fill.value = "rgb(230,0,230)";

				// remember matches
				if (matches[x] == undefined) {
					matches[x] = w;
				} else {
					if (w > matches[x]) {
						// overwrite with parent
						matches[x] = w;
					}
				}
				searching = 1;
			}
		}
		if (!searching)
			return;

		searchbtn.classList.add("show");
		searchbtn.firstChild.nodeValue = "Reset Search";

		// calculate percent matched, excluding vertical overlap
		var count = 0;
		var lastx = -1;
		var lastw = 0;
		var keys = Array();
		for (k in matches) {
			if (matches.hasOwnProperty(k))
				keys.push(k);
		}
		// sort the matched frames by their x location
		// ascending, then width descending
		keys.sort(function(a, b){
			return a - b;
		});
		// Step through frames saving only the biggest bottom-up frames
		// thanks to the sort order. This relies on the tree property
		// where children are always smaller than their parents.
		var fudge = 0.0001;	// JavaScript floating point
		for (var k in keys) {
			var x = parseFloat(keys[k]);
			var w = matches[keys[k]];
			if (x >= lastx + lastw - fudge) {
				count += w;
				lastx = x;
				lastw = w;
			}
		}
		// display matched percent
		matchedtxt.classList.remove("hide");
		var pct = 100 * count / maxwidth;
		if (pct != 100) pct = pct.toFixed(1)
		matchedtxt.firstChild.nodeValue = "Matched: " + pct + "%";
	}
]]>
</script>
<rect x="0" y="0" width="100%" height="100%" fill="rgb(240,240,220)"/>
<text id="title" x="600" y="24">Flame Graph</text>
<text id="details" x="10" y="1125"> </text>
<text id="unzoom" x="10" y="24" class="hide">Reset Zoom</text>
<text id="search" x="1090" y="24">Search</text>
<text id="matched" x="1090" y="1125"> </text>
<g id="frames">
<g>
<title>all (6 samples, 100.00%)</title><rect x="10.0" y="1091.0" width="1180.0" height="15" fill="#f57575" rx="2" ry="2"/>
<text x="13.0" y="1102.0">all</text>
</g>
<g>
<title>com/example/Test.main (2 samples, 33.33%)</title><rect x="10.0" y="1075.0" width="393.3" height="15" fill="#5dee5d" rx="2" ry="2"/>
<text x="13.0" y="1086.0">com/example/Test.main</text>
</g>
<g>
<title>java/util/concurrent/locks/LockSupport.parkNanos (2 samples, 33.33%)</title><rect x="10.0" y="1059.0" width="393.3" height="15" fill="#68f968" rx="2" ry="2"/>
<text x="13.0" y="1070.0">java/util/concurrent/locks/LockSupport.parkNanos</text>
</g>
<g>
<title>sun/misc/Unsafe.park (2 samples, 33.33%)</title><rect x="10.0" y="1043.0" width="393.3" height="15" fill="#50e150" rx="2" ry="2"/>
<text x="13.0" y="1054.0">sun/misc/Unsafe.park</text>
</g>
<g>
<title>Unsafe_Park (2 samples, 33.33%)</title><rect x="10.0" y="1027.0" width="393.3" height="15" fill="#e56060" rx="2" ry="2"/>
<text x="13.0" y="1038.0">Unsafe_Park</text>
</g>
<g>
<title>Parker::park(bool, long) (2 samples, 33.33%)</title><rect x="10.0" y="1011.0" width="393.3" height="15" fill="#dddd43" rx="2" ry="2"/>
<text x="13.0" y="1022.0">Parker::park(bool, long)</text>
</g>
<g>
<title>__psynch_cvwait (2 samples, 33.33%)</title><rect x="10.0" y="995.0" width="393.3" height="15" fill="#f67676" rx="2" ry="2"/>
<text x="13.0" y="1006.0">__psynch_cvwait</text>
</g>
<g>
<title>java/lang/Thread.run (1 samples, 16.67%)</title><rect x="403.3" y="1075.0" width="196.7" height="15" fill="#5dee5d" rx="2" ry="2"/>
<text x="406.3" y="1086.0">java/lang/Thread.run</text>
</g>
<g>
<title>com/alibaba/arthas/deps/io/netty/util/concurrent/FastThreadLocalRunnable.run (1 samples, 16.67%)</title><rect x="403.3" y="1059.0" width="196.7" height="15" fill="#61f261" rx="2" ry="2"/>
<text x="406.3" y="1070.0">com/alibaba/arthas/deps/io..</text>
</g>
<g>
<title>com/alibaba/arthas/deps/io/netty/util/internal/ThreadExecutorMap$2.run (1 samples, 16.67%)</title><rect x="403.3" y="1043.0" width="196.7" height="15" fill="#66f766" rx="2" ry="2"/>
<text x="406.3" y="1054.0">com/alibaba/arthas/deps/io..</text>
</g>
<g>
<title>com/alibaba/arthas/deps/io/netty/util/concurrent/SingleThreadEventExecutor$4.run (1 samples, 16.67%)</title><rect x="403.3" y="1027.0" width="196.7" height="15" fill="#6dfe6d" rx="2" ry="2"/>
<text x="406.3" y="1038.0">com/alibaba/arthas/deps/io..</text>
</g>
<g>
<title>com/alibaba/arthas/deps/io/netty/channel/nio/NioEventLoop.run (1 samples, 16.67%)</title><rect x="403.3" y="1011.0" width="196.7" height="15" fill="#64f564" rx="2" ry="2"/>
<text x="406.3" y="1022.0">com/alibaba/arthas/deps/io..</text>
</g>
<g>
<title>com/alibaba/arthas/deps/io/netty/channel/nio/NioEventLoop.processSelectedKeys (1 samples, 16.67%)</title><rect x="403.3" y="995.0" width="196.7" height="15" fill="#58e958" rx="2" ry="2"/>
<text x="406.3" y="1006.0">com/alibaba/arthas/deps/io..</text>
</g>
<g>
<title>com/alibaba/arthas/deps/io/netty/channel/nio/NioEventLoop.processSelectedKeysOptimized (1 samples, 16.67%)</title><rect x="403.3" y="979.0" width="196.7" height="15" fill="#66f766" rx="2" ry="2"/>
<text x="406.3" y="990.0">com/alibaba/arthas/deps/io..</text>
</g>
<g>
<title>com/alibaba/arthas/deps/io/netty/channel/nio/NioEventLoop.processSelectedKey (1 samples, 16.67%)</title><rect x="403.3" y="963.0" width="196.7" height="15" fill="#55e655" rx="2" ry="2"/>
<text x="406.3" y="974.0">com/alibaba/arthas/deps/io..</text>
</g>
<g>
<title>com/alibaba/arthas/deps/io/netty/channel/nio/AbstractNioByteChannel$NioByteUnsafe.read (1 samples, 16.67%)</title><rect x="403.3" y="947.0" width="196.7" height="15" fill="#50e150" rx="2" ry="2"/>
<text x="406.3" y="958.0">com/alibaba/arthas/deps/io..</text>
</g>
<g>
<title>com/alibaba/arthas/deps/io/netty/channel/DefaultChannelPipeline.fireChannelRead (1 samples, 16.67%)</title><rect x="403.3" y="931.0" width="196.7" height="15" fill="#5eef5e" rx="2" ry="2"/>
<text x="406.3" y="942.0">com/alibaba/arthas/deps/io..</text>
</g>
<g>
<title>com/alibaba/arthas/deps/io/netty/channel/AbstractChannelHandlerContext.invokeChannelRead (1 samples, 16.67%)</title><rect x="403.3" y="915.0" width="196.7" height="15" fill="#52e352" rx="2" ry="2"/>
<text x="406.3" y="926.0">com/alibaba/arthas/deps/io..</text>
</g>
<g>
<title>com/alibaba/arthas/deps/io/netty/channel/AbstractChannelHandlerContext.invokeChannelRead (1 samples, 16.67%)</title><rect x="403.3" y="899.0" width="196.7" height="15" fill="#54e554" rx="2" ry="2"/>
<text x="406.3" y="910.0">com/alibaba/arthas/deps/io..</text>
</g>
<g>
<title>com/alibaba/arthas/deps/io/netty/channel/DefaultChannelPipeline$HeadContext.channelRead (1 samples, 16.67%)</title><rect x="403.3" y="883.0" width="196.7" height="15" fill="#6bfc6b" rx="2" ry="2"/>
<text x="406.3" y="894.0">com/alibaba/arthas/deps/io..</text>
</g>
<g>
<title>com/alibaba/arthas/deps/io/netty/channel/AbstractChannelHandlerContext.fireChannelRead (1 samples, 16.67%)</title><rect x="403.3" y="867.0" width="196.7" height="15" fill="#67f867" rx="2" ry="2"/>
<text x="406.3" y="878.0">com/alibaba/arthas/deps/io..</text>
</g>
<g>
<title>com/alibaba/arthas/deps/io/netty/channel/AbstractChannelHandlerContext.invokeChannelRead (1 samples, 16.67%)</title><rect x="403.3" y="851.0" width="196.7" height="15" fill="#66f766" rx="2" ry="2"/>
<text x="406.3" y="862.0">com/alibaba/arthas/deps/io..</text>
</g>
<g>
<title>com/alibaba/arthas/deps/io/netty/channel/AbstractChannelHandlerContext.invokeChannelRead (1 samples, 16.67%)</title><rect x="403.3" y="835.0" width="196.7" height="15" fill="#5dee5d" rx="2" ry="2"/>
<text x="406.3" y="846.0">com/alibaba/arthas/deps/io..</text>
</g>
<g>
<title>io/termd/core/telnet/netty/TelnetChannelHandler.channelRead (1 samples, 16.67%)</title><rect x="403.3" y="819.0" width="196.7" height="15" fill="#50e150" rx="2" ry="2"/>
<text x="406.3" y="830.0">io/termd/core/telnet/netty..</text>
</g>
<g>
<title>io/termd/core/telnet/TelnetConnection.receive (1 samples, 16.67%)</title><rect x="403.3" y="803.0" width="196.7" height="15" fill="#61f261" rx="2" ry="2"/>
<text x="406.3" y="814.0">io/termd/core/telnet/Telne..</text>
</g>
<g>
<title>io/termd/core/telnet/TelnetConnection.flushDataIfNecessary (1 samples, 16.67%)</title><rect x="403.3" y="787.0" width="196.7" height="15" fill="#5ff05f" rx="2" ry="2"/>
<text x="406.3" y="798.0">io/termd/core/telnet/Telne..</text>
</g>
<g>
<title>io/termd/core/telnet/TelnetConnection.flushData (1 samples, 16.67%)</title><rect x="403.3" y="771.0" width="196.7" height="15" fill="#52e352" rx="2" ry="2"/>
<text x="406.3" y="782.0">io/termd/core/telnet/Telne..</text>
</g>
<g>
<title>io/termd/core/telnet/TelnetTtyConnection.onData (1 samples, 16.67%)</title><rect x="403.3" y="755.0" width="196.7" height="15" fill="#60f160" rx="2" ry="2"/>
<text x="406.3" y="766.0">io/termd/core/telnet/Telne..</text>
</g>
<g>
<title>io/termd/core/io/BinaryDecoder.write (1 samples, 16.67%)</title><rect x="403.3" y="739.0" width="196.7" height="15" fill="#5bec5b" rx="2" ry="2"/>
<text x="406.3" y="750.0">io/termd/core/io/BinaryDec..</text>
</g>
<g>
<title>io/termd/core/io/BinaryDecoder.write (1 samples, 16.67%)</title><rect x="403.3" y="723.0" width="196.7" height="15" fill="#56e756" rx="2" ry="2"/>
<text x="406.3" y="734.0">io/termd/core/io/BinaryDec..</text>
</g>
<g>
<title>io/termd/core/tty/ReadBuffer.accept (1 samples, 16.67%)</title><rect x="403.3" y="707.0" width="196.7" height="15" fill="#5bec5b" rx="2" ry="2"/>
<text x="406.3" y="718.0">io/termd/core/tty/ReadBuff..</text>
</g>
<g>
<title>io/termd/core/tty/ReadBuffer.accept (1 samples, 16.67%)</title><rect x="403.3" y="691.0" width="196.7" height="15" fill="#62f362" rx="2" ry="2"/>
<text x="406.3" y="702.0">io/termd/core/tty/ReadBuff..</text>
</g>
<g>
<title>io/termd/core/tty/TtyEventDecoder.accept (1 samples, 16.67%)</title><rect x="403.3" y="675.0" width="196.7" height="15" fill="#63f463" rx="2" ry="2"/>
<text x="406.3" y="686.0">io/termd/core/tty/TtyEvent..</text>
</g>
<g>
<title>io/termd/core/tty/TtyEventDecoder.accept (1 samples, 16.67%)</title><rect x="403.3" y="659.0" width="196.7" height="15" fill="#65f665" rx="2" ry="2"/>
<text x="406.3" y="670.0">io/termd/core/tty/TtyEvent..</text>
</g>
<g>
<title>io/termd/core/readline/Readline$Interaction$2.accept (1 samples, 16.67%)</title><rect x="403.3" y="643.0" width="196.7" height="15" fill="#60f160" rx="2" ry="2"/>
<text x="406.3" y="654.0">io/termd/core/readline/Rea..</text>
</g>
<g>
<title>io/termd/core/readline/Readline$Interaction$2.accept (1 samples, 16.67%)</title><rect x="403.3" y="627.0" width="196.7" height="15" fill="#58e958" rx="2" ry="2"/>
<text x="406.3" y="638.0">io/termd/core/readline/Rea..</text>
</g>
<g>
<title>io/termd/core/readline/Readline.access$500 (1 samples, 16.67%)</title><rect x="403.3" y="611.0" width="196.7" height="15" fill="#68f968" rx="2" ry="2"/>
<text x="406.3" y="622.0">io/termd/core/readline/Rea..</text>
</g>
<g>
<title>io/termd/core/readline/Readline.deliver (1 samples, 16.67%)</title><rect x="403.3" y="595.0" width="196.7" height="15" fill="#5bec5b" rx="2" ry="2"/>
<text x="406.3" y="606.0">io/termd/core/readline/Rea..</text>
</g>
<g>
<title>io/termd/core/readline/Readline$Interaction.access$200 (1 samples, 16.67%)</title><rect x="403.3" y="579.0" width="196.7" height="15" fill="#64f564" rx="2" ry="2"/>
<text x="406.3" y="590.0">io/termd/core/readline/Rea..</text>
</g>
<g>
<title>io/termd/core/readline/Readline$Interaction.handle (1 samples, 16.67%)</title><rect x="403.3" y="563.0" width="196.7" height="15" fill="#59ea59" rx="2" ry="2"/>
<text x="406.3" y="574.0">io/termd/core/readline/Rea..</text>
</g>
<g>
<title>io/termd/core/readline/Readline$Interaction.refresh (1 samples, 16.67%)</title><rect x="403.3" y="547.0" width="196.7" height="15" fill="#50e150" rx="2" ry="2"/>
<text x="406.3" y="558.0">io/termd/core/readline/Rea..</text>
</g>
<g>
<title>io/termd/core/readline/Readline$Interaction.refresh (1 samples, 16.67%)</title><rect x="403.3" y="531.0" width="196.7" height="15" fill="#53e453" rx="2" ry="2"/>
<text x="406.3" y="542.0">io/termd/core/readline/Rea..</text>
</g>
<g>
<title>io/termd/core/tty/TtyOutputMode.accept (1 samples, 16.67%)</title><rect x="403.3" y="515.0" width="196.7" height="15" fill="#5ff05f" rx="2" ry="2"/>
<text x="406.3" y="526.0">io/termd/core/tty/TtyOutpu..</text>
</g>
<g>
<title>io/termd/core/tty/TtyOutputMode.accept (1 samples, 16.67%)</title><rect x="403.3" y="499.0" width="196.7" height="15" fill="#67f867" rx="2" ry="2"/>
<text x="406.3" y="510.0">io/termd/core/tty/TtyOutpu..</text>
</g>
<g>
<title>io/termd/core/tty/TtyOutputMode.sendChunk (1 samples, 16.67%)</title><rect x="403.3" y="483.0" width="196.7" height="15" fill="#56e756" rx="2" ry="2"/>
<text x="406.3" y="494.0">io/termd/core/tty/TtyOutpu..</text>
</g>
<g>
<title>io/termd/core/io/BinaryEncoder.accept (1 samples, 16.67%)</title><rect x="403.3" y="467.0" width="196.7" height="15" fill="#51e251" rx="2" ry="2"/>
<text x="406.3" y="478.0">io/termd/core/io/BinaryEnc..</text>
</g>
<g>
<title>io/termd/core/io/BinaryEncoder.accept (1 samples, 16.67%)</title><rect x="403.3" y="451.0" width="196.7" height="15" fill="#52e352" rx="2" ry="2"/>
<text x="406.3" y="462.0">io/termd/core/io/BinaryEnc..</text>
</g>
<g>
<title>io/termd/core/telnet/TelnetTtyConnection$2.accept (1 samples, 16.67%)</title><rect x="403.3" y="435.0" width="196.7" height="15" fill="#54e554" rx="2" ry="2"/>
<text x="406.3" y="446.0">io/termd/core/telnet/Telne..</text>
</g>
<g>
<title>io/termd/core/telnet/TelnetTtyConnection$2.accept (1 samples, 16.67%)</title><rect x="403.3" y="419.0" width="196.7" height="15" fill="#65f665" rx="2" ry="2"/>
<text x="406.3" y="430.0">io/termd/core/telnet/Telne..</text>
</g>
<g>
<title>io/termd/core/telnet/TelnetConnection.write (1 samples, 16.67%)</title><rect x="403.3" y="403.0" width="196.7" height="15" fill="#58e958" rx="2" ry="2"/>
<text x="406.3" y="414.0">io/termd/core/telnet/Telne..</text>
</g>
<g>
<title>io/termd/core/telnet/netty/NettyTelnetConnection.send (1 samples, 16.67%)</title><rect x="403.3" y="387.0" width="196.7" height="15" fill="#51e251" rx="2" ry="2"/>
<text x="406.3" y="398.0">io/termd/core/telnet/netty..</text>
</g>
<g>
<title>com/alibaba/arthas/deps/io/netty/channel/AbstractChannelHandlerContext.writeAndFlush (1 samples, 16.67%)</title><rect x="403.3" y="371.0" width="196.7" height="15" fill="#5eef5e" rx="2" ry="2"/>
<text x="406.3" y="382.0">com/alibaba/arthas/deps/io..</text>
</g>
<g>
<title>com/alibaba/arthas/deps/io/netty/channel/AbstractChannelHandlerContext.writeAndFlush (1 samples, 16.67%)</title><rect x="403.3" y="355.0" width="196.7" height="15" fill="#5dee5d" rx="2" ry="2"/>
<text x="406.3" y="366.0">com/alibaba/arthas/deps/io..</text>
</g>
<g>
<title>com/alibaba/arthas/deps/io/netty/channel/AbstractChannelHandlerContext.write (1 samples, 16.67%)</title><rect x="403.3" y="339.0" width="196.7" height="15" fill="#5ff05f" rx="2" ry="2"/>
<text x="406.3" y="350.0">com/alibaba/arthas/deps/io..</text>
</g>
<g>
<title>com/alibaba/arthas/deps/io/netty/channel/AbstractChannelHandlerContext.invokeWriteAndFlush (1 samples, 16.67%)</title><rect x="403.3" y="323.0" width="196.7" height="15" fill="#5dee5d" rx="2" ry="2"/>
<text x="406.3" y="334.0">com/alibaba/arthas/deps/io..</text>
</g>
<g>
<title>com/alibaba/arthas/deps/io/netty/channel/AbstractChannelHandlerContext.invokeFlush0 (1 samples, 16.67%)</title><rect x="403.3" y="307.0" width="196.7" height="15" fill="#54e554" rx="2" ry="2"/>
<text x="406.3" y="318.0">com/alibaba/arthas/deps/io..</text>
</g>
<g>
<title>com/alibaba/arthas/deps/io/netty/channel/DefaultChannelPipeline$HeadContext.flush (1 samples, 16.67%)</title><rect x="403.3" y="291.0" width="196.7" height="15" fill="#58e958" rx="2" ry="2"/>
<text x="406.3" y="302.0">com/alibaba/arthas/deps/io..</text>
</g>
<g>
<title>com/alibaba/arthas/deps/io/netty/channel/AbstractChannel$AbstractUnsafe.flush (1 samples, 16.67%)</title><rect x="403.3" y="275.0" width="196.7" height="15" fill="#69fa69" rx="2" ry="2"/>
<text x="406.3" y="286.0">com/alibaba/arthas/deps/io..</text>
</g>
<g>
<title>com/alibaba/arthas/deps/io/netty/channel/nio/AbstractNioChannel$AbstractNioUnsafe.flush0 (1 samples, 16.67%)</title><rect x="403.3" y="259.0" width="196.7" height="15" fill="#64f564" rx="2" ry="2"/>
<text x="406.3" y="270.0">com/alibaba/arthas/deps/io..</text>
</g>
<g>
<title>com/alibaba/arthas/deps/io/netty/channel/AbstractChannel$AbstractUnsafe.flush0 (1 samples, 16.67%)</title><rect x="403.3" y="243.0" width="196.7" height="15" fill="#61f261" rx="2" ry="2"/>
<text x="406.3" y="254.0">com/alibaba/arthas/deps/io..</text>
</g>
<g>
<title>com/alibaba/arthas/deps/io/netty/channel/socket/nio/NioSocketChannel.doWrite (1 samples, 16.67%)</title><rect x="403.3" y="227.0" width="196.7" height="15" fill="#64f564" rx="2" ry="2"/>
<text x="406.3" y="238.0">com/alibaba/arthas/deps/io..</text>
</g>
<g>
<title>com/alibaba/arthas/deps/io/netty/channel/ChannelOutboundBuffer.removeBytes (1 samples, 16.67%)</title><rect x="403.3" y="211.0" width="196.7" height="15" fill="#59ea59" rx="2" ry="2"/>
<text x="406.3" y="222.0">com/alibaba/arthas/deps/io..</text>
</g>
<g>
<title>com/alibaba/arthas/deps/io/netty/channel/ChannelOutboundBuffer.remove (1 samples, 16.67%)</title><rect x="403.3" y="195.0" width="196.7" height="15" fill="#51e251" rx="2" ry="2"/>
<text x="406.3" y="206.0">com/alibaba/arthas/deps/io..</text>
</g>
<g>
<title>com/alibaba/arthas/deps/io/netty/channel/ChannelOutboundBuffer$Entry.recycle (1 samples, 16.67%)</title><rect x="403.3" y="179.0" width="196.7" height="15" fill="#6dfe6d" rx="2" ry="2"/>
<text x="406.3" y="190.0">com/alibaba/arthas/deps/io..</text>
</g>
<g>
<title>SharedRuntime::resolve_virtual_call_C(JavaThread*) (1 samples, 16.67%)</title><rect x="403.3" y="163.0" width="196.7" height="15" fill="#d8d841" rx="2" ry="2"/>
<text x="406.3" y="174.0">SharedRuntime::resolve_vir..</text>
</g>
<g>
<title>SharedRuntime::resolve_helper(JavaThread*, bool, bool, Thread*) (1 samples, 16.67%)</title><rect x="403.3" y="147.0" width="196.7" height="15" fill="#c8c83c" rx="2" ry="2"/>
<text x="406.3" y="158.0">SharedRuntime::resolve_hel..</text>
</g>
<g>
<title>SharedRuntime::resolve_sub_helper(JavaThread*, bool, bool, Thread*) (1 samples, 16.67%)</title><rect x="403.3" y="131.0" width="196.7" height="15" fill="#e1e144" rx="2" ry="2"/>
<text x="406.3" y="142.0">SharedRuntime::resolve_sub..</text>
</g>
<g>
<title>SharedRuntime::find_callee_info(JavaThread*, Bytecodes::Code&amp;, CallInfo&amp;, Thread*) (1 samples, 16.67%)</title><rect x="403.3" y="115.0" width="196.7" height="15" fill="#c8c83c" rx="2" ry="2"/>
<text x="406.3" y="126.0">SharedRuntime::find_callee..</text>
</g>
<g>
<title>SharedRuntime::find_callee_info_helper(JavaThread*, vframeStream&amp;, Bytecodes::Code&amp;, CallInfo&amp;, Thread*) (1 samples, 16.67%)</title><rect x="403.3" y="99.0" width="196.7" height="15" fill="#d3d33f" rx="2" ry="2"/>
<text x="406.3" y="110.0">SharedRuntime::find_callee..</text>
</g>
<g>
<title>Bytecode_invoke::static_target(Thread*) (1 samples, 16.67%)</title><rect x="403.3" y="83.0" width="196.7" height="15" fill="#d6d640" rx="2" ry="2"/>
<text x="406.3" y="94.0">Bytecode_invoke::static_ta..</text>
</g>
<g>
<title>LinkResolver::resolve_method_statically(methodHandle&amp;, KlassHandle&amp;, Bytecodes::Code, constantPoolHandle, int, Thread*) (1 samples, 16.67%)</title><rect x="403.3" y="67.0" width="196.7" height="15" fill="#d9d941" rx="2" ry="2"/>
<text x="406.3" y="78.0">LinkResolver::resolve_meth..</text>
</g>
<g>
<title>ConstantPool::klass_ref_at(int, Thread*) (1 samples, 16.67%)</title><rect x="403.3" y="51.0" width="196.7" height="15" fill="#dede43" rx="2" ry="2"/>
<text x="406.3" y="62.0">ConstantPool::klass_ref_at..</text>
</g>
<g>
<title>ConstantPool::impl_klass_ref_index_at(int, bool) (1 samples, 16.67%)</title><rect x="403.3" y="35.0" width="196.7" height="15" fill="#dcdc42" rx="2" ry="2"/>
<text x="406.3" y="46.0">ConstantPool::impl_klass_r..</text>
</g>
<g>
<title>thread_start (3 samples, 50.00%)</title><rect x="600.0" y="1075.0" width="590.0" height="15" fill="#f16f6f" rx="2" ry="2"/>
<text x="603.0" y="1086.0">thread_start</text>
</g>
<g>
<title>_pthread_start (3 samples, 50.00%)</title><rect x="600.0" y="1059.0" width="590.0" height="15" fill="#e25b5b" rx="2" ry="2"/>
<text x="603.0" y="1070.0">_pthread_start</text>
</g>
<g>
<title>_pthread_body (3 samples, 50.00%)</title><rect x="600.0" y="1043.0" width="590.0" height="15" fill="#e45e5e" rx="2" ry="2"/>
<text x="603.0" y="1054.0">_pthread_body</text>
</g>
<g>
<title>java_start(Thread*) (3 samples, 50.00%)</title><rect x="600.0" y="1027.0" width="590.0" height="15" fill="#fe8080" rx="2" ry="2"/>
<text x="603.0" y="1038.0">java_start(Thread*)</text>
</g>
<g>
<title>JavaThread::run() (2 samples, 33.33%)</title><rect x="600.0" y="1011.0" width="393.3" height="15" fill="#cdcd3d" rx="2" ry="2"/>
<text x="603.0" y="1022.0">JavaThread::run()</text>
</g>
<g>
<title>JavaThread::thread_main_inner() (2 samples, 33.33%)</title><rect x="600.0" y="995.0" width="393.3" height="15" fill="#d2d23f" rx="2" ry="2"/>
<text x="603.0" y="1006.0">JavaThread::thread_main_inner()</text>
</g>
<g>
<title>CompileBroker::compiler_thread_loop() (2 samples, 33.33%)</title><rect x="600.0" y="979.0" width="393.3" height="15" fill="#dada42" rx="2" ry="2"/>
<text x="603.0" y="990.0">CompileBroker::compiler_thread_loop()</text>
</g>
<g>
<title>CompileBroker::invoke_compiler_on_method(CompileTask*) (2 samples, 33.33%)</title><rect x="600.0" y="963.0" width="393.3" height="15" fill="#dada42" rx="2" ry="2"/>
<text x="603.0" y="974.0">CompileBroker::invoke_compiler_on_method(CompileTask*)</text>
</g>
<g>
<title>C2Compiler::compile_method(ciEnv*, ciMethod*, int) (2 samples, 33.33%)</title><rect x="600.0" y="947.0" width="393.3" height="15" fill="#cbcb3d" rx="2" ry="2"/>
<text x="603.0" y="958.0">C2Compiler::compile_method(ciEnv*, ciMethod*, int)</text>
</g>
<g>
<title>Compile::Compile(ciEnv*, C2Compiler*, ciMethod*, int, bool, bool, bool) (2 samples, 33.33%)</title><rect x="600.0" y="931.0" width="393.3" height="15" fill="#d8d841" rx="2" ry="2"/>
<text x="603.0" y="942.0">Compile::Compile(ciEnv*, C2Compiler*, ciMethod*, int, ..</text>
</g>
<g>
<title>Compile::Code_Gen() (1 samples, 16.67%)</title><rect x="600.0" y="915.0" width="196.7" height="15" fill="#e4e445" rx="2" ry="2"/>
<text x="603.0" y="926.0">Compile::Code_Gen()</text>
</g>
<g>
<title>PhaseCFG::do_global_code_motion() (1 samples, 16.67%)</title><rect x="600.0" y="899.0" width="196.7" height="15" fill="#d2d23f" rx="2" ry="2"/>
<text x="603.0" y="910.0">PhaseCFG::do_global_code_m..</text>
</g>
<g>
<title>PhaseCFG::global_code_motion() (1 samples, 16.67%)</title><rect x="600.0" y="883.0" width="196.7" height="15" fill="#e1e144" rx="2" ry="2"/>
<text x="603.0" y="894.0">PhaseCFG::global_code_moti..</text>
</g>
<g>
<title>PhaseCFG::schedule_late(VectorSet&amp;, Node_List&amp;) (1 samples, 16.67%)</title><rect x="600.0" y="867.0" width="196.7" height="15" fill="#e5e545" rx="2" ry="2"/>
<text x="603.0" y="878.0">PhaseCFG::schedule_late(Ve..</text>
</g>
<g>
<title>PhaseCFG::insert_anti_dependences(Block*, Node*, bool) (1 samples, 16.67%)</title><rect x="600.0" y="851.0" width="196.7" height="15" fill="#cfcf3e" rx="2" ry="2"/>
<text x="603.0" y="862.0">PhaseCFG::insert_anti_depe..</text>
</g>
<g>
<title>Compile::can_alias(TypePtr const*, int) (1 samples, 16.67%)</title><rect x="600.0" y="835.0" width="196.7" height="15" fill="#cfcf3e" rx="2" ry="2"/>
<text x="603.0" y="846.0">Compile::can_alias(TypePtr..</text>
</g>
<g>
<title>ParseGenerator::generate(JVMState*) (1 samples, 16.67%)</title><rect x="796.7" y="915.0" width="196.6" height="15" fill="#d4d440" rx="2" ry="2"/>
<text x="799.7" y="926.0">ParseGenerator::generate(J..</text>
</g>
<g>
<title>Parse::Parse(JVMState*, ciMethod*, float) (1 samples, 16.67%)</title><rect x="796.7" y="899.0" width="196.6" height="15" fill="#e0e044" rx="2" ry="2"/>
<text x="799.7" y="910.0">Parse::Parse(JVMState*, ci..</text>
</g>
<g>
<title>Parse::do_all_blocks() (1 samples, 16.67%)</title><rect x="796.7" y="883.0" width="196.6" height="15" fill="#e2e244" rx="2" ry="2"/>
<text x="799.7" y="894.0">Parse::do_all_blocks()</text>
</g>
<g>
<title>Parse::do_one_block() (1 samples, 16.67%)</title><rect x="796.7" y="867.0" width="196.6" height="15" fill="#cfcf3e" rx="2" ry="2"/>
<text x="799.7" y="878.0">Parse::do_one_block()</text>
</g>
<g>
<title>Parse::do_one_bytecode() (1 samples, 16.67%)</title><rect x="796.7" y="851.0" width="196.6" height="15" fill="#dede43" rx="2" ry="2"/>
<text x="799.7" y="862.0">Parse::do_one_bytecode()</text>
</g>
<g>
<title>Parse::do_call() (1 samples, 16.67%)</title><rect x="796.7" y="835.0" width="196.6" height="15" fill="#dcdc42" rx="2" ry="2"/>
<text x="799.7" y="846.0">Parse::do_call()</text>
</g>
<g>
<title>ParseGenerator::generate(JVMState*) (1 samples, 16.67%)</title><rect x="796.7" y="819.0" width="196.6" height="15" fill="#d5d540" rx="2" ry="2"/>
<text x="799.7" y="830.0">ParseGenerator::generate(J..</text>
</g>
<g>
<title>Parse::Parse(JVMState*, ciMethod*, float) (1 samples, 16.67%)</title><rect x="796.7" y="803.0" width="196.6" height="15" fill="#cfcf3e" rx="2" ry="2"/>
<text x="799.7" y="814.0">Parse::Parse(JVMState*, ci..</text>
</g>
<g>
<title>Parse::do_all_blocks() (1 samples, 16.67%)</title><rect x="796.7" y="787.0" width="196.6" height="15" fill="#dbdb42" rx="2" ry="2"/>
<text x="799.7" y="798.0">Parse::do_all_blocks()</text>
</g>
<g>
<title>Parse::do_one_block() (1 samples, 16.67%)</title><rect x="796.7" y="771.0" width="196.6" height="15" fill="#cbcb3d" rx="2" ry="2"/>
<text x="799.7" y="782.0">Parse::do_one_block()</text>
</g>
<g>
<title>Parse::do_one_bytecode() (1 samples, 16.67%)</title><rect x="796.7" y="755.0" width="196.6" height="15" fill="#cece3e" rx="2" ry="2"/>
<text x="799.7" y="766.0">Parse::do_one_bytecode()</text>
</g>
<g>
<title>Parse::do_call() (1 samples, 16.67%)</title><rect x="796.7" y="739.0" width="196.6" height="15" fill="#cbcb3d" rx="2" ry="2"/>
<text x="799.7" y="750.0">Parse::do_call()</text>
</g>
<g>
<title>ParseGenerator::generate(JVMState*) (1 samples, 16.67%)</title><rect x="796.7" y="723.0" width="196.6" height="15" fill="#d8d841" rx="2" ry="2"/>
<text x="799.7" y="734.0">ParseGenerator::generate(J..</text>
</g>
<g>
<title>Parse::Parse(JVMState*, ciMethod*, float) (1 samples, 16.67%)</title><rect x="796.7" y="707.0" width="196.6" height="15" fill="#c8c83c" rx="2" ry="2"/>
<text x="799.7" y="718.0">Parse::Parse(JVMState*, ci..</text>
</g>
<g>
<title>Parse::do_all_blocks() (1 samples, 16.67%)</title><rect x="796.7" y="691.0" width="196.6" height="15" fill="#cdcd3d" rx="2" ry="2"/>
<text x="799.7" y="702.0">Parse::do_all_blocks()</text>
</g>
<g>
<title>Parse::do_one_block() (1 samples, 16.67%)</title><rect x="796.7" y="675.0" width="196.6" height="15" fill="#d9d941" rx="2" ry="2"/>
<text x="799.7" y="686.0">Parse::do_one_block()</text>
</g>
<g>
<title>Parse::do_one_bytecode() (1 samples, 16.67%)</title><rect x="796.7" y="659.0" width="196.6" height="15" fill="#d4d440" rx="2" ry="2"/>
<text x="799.7" y="670.0">Parse::do_one_bytecode()</text>
</g>
<g>
<title>Parse::do_call() (1 samples, 16.67%)</title><rect x="796.7" y="643.0" width="196.6" height="15" fill="#caca3c" rx="2" ry="2"/>
<text x="799.7" y="654.0">Parse::do_call()</text>
</g>
<g>
<title>ParseGenerator::generate(JVMState*) (1 samples, 16.67%)</title><rect x="796.7" y="627.0" width="196.6" height="15" fill="#dcdc42" rx="2" ry="2"/>
<text x="799.7" y="638.0">ParseGenerator::generate(J..</text>
</g>
<g>
<title>Parse::Parse(JVMState*, ciMethod*, float) (1 samples, 16.67%)</title><rect x="796.7" y="611.0" width="196.6" height="15" fill="#d3d33f" rx="2" ry="2"/>
<text x="799.7" y="622.0">Parse::Parse(JVMState*, ci..</text>
</g>
<g>
<title>Parse::do_all_blocks() (1 samples, 16.67%)</title><rect x="796.7" y="595.0" width="196.6" height="15" fill="#e1e144" rx="2" ry="2"/>
<text x="799.7" y="606.0">Parse::do_all_blocks()</text>
</g>
<g>
<title>Parse::do_one_block() (1 samples, 16.67%)</title><rect x="796.7" y="579.0" width="196.6" height="15" fill="#cbcb3d" rx="2" ry="2"/>
<text x="799.7" y="590.0">Parse::do_one_block()</text>
</g>
<g>
<title>Parse::do_one_bytecode() (1 samples, 16.67%)</title><rect x="796.7" y="563.0" width="196.6" height="15" fill="#e5e545" rx="2" ry="2"/>
<text x="799.7" y="574.0">Parse::do_one_bytecode()</text>
</g>
<g>
<title>Parse::do_call() (1 samples, 16.67%)</title><rect x="796.7" y="547.0" width="196.6" height="15" fill="#c8c83c" rx="2" ry="2"/>
<text x="799.7" y="558.0">Parse::do_call()</text>
</g>
<g>
<title>ParseGenerator::generate(JVMState*) (1 samples, 16.67%)</title><rect x="796.7" y="531.0" width="196.6" height="15" fill="#caca3c" rx="2" ry="2"/>
<text x="799.7" y="542.0">ParseGenerator::generate(J..</text>
</g>
<g>
<title>Parse::Parse(JVMState*, ciMethod*, float) (1 samples, 16.67%)</title><rect x="796.7" y="515.0" width="196.6" height="15" fill="#d6d640" rx="2" ry="2"/>
<text x="799.7" y="526.0">Parse::Parse(JVMState*, ci..</text>
</g>
<g>
<title>Parse::do_all_blocks() (1 samples, 16.67%)</title><rect x="796.7" y="499.0" width="196.6" height="15" fill="#dfdf43" rx="2" ry="2"/>
<text x="799.7" y="510.0">Parse::do_all_blocks()</text>
</g>
<g>
<title>Parse::do_one_block() (1 samples, 16.67%)</title><rect x="796.7" y="483.0" width="196.6" height="15" fill="#e4e445" rx="2" ry="2"/>
<text x="799.7" y="494.0">Parse::do_one_block()</text>
</g>
<g>
<title>Parse::do_one_bytecode() (1 samples, 16.67%)</title><rect x="796.7" y="467.0" width="196.6" height="15" fill="#cfcf3e" rx="2" ry="2"/>
<text x="799.7" y="478.0">Parse::do_one_bytecode()</text>
</g>
<g>
<title>Parse::do_field_access(bool, bool) (1 samples, 16.67%)</title><rect x="796.7" y="451.0" width="196.6" height="15" fill="#d2d23f" rx="2" ry="2"/>
<text x="799.7" y="462.0">Parse::do_field_access(boo..</text>
</g>
<g>
<title>Parse::do_put_xxx(Node*, ciField*, bool) (1 samples, 16.67%)</title><rect x="796.7" y="435.0" width="196.6" height="15" fill="#dfdf43" rx="2" ry="2"/>
<text x="799.7" y="446.0">Parse::do_put_xxx(Node*, c..</text>
</g>
<g>
<title>GraphKit::store_oop(Node*, Node*, Node*, TypePtr const*, Node*, TypeOopPtr const*, BasicType, bool, MemNode::MemOrd, bool) (1 samples, 16.67%)</title><rect x="796.7" y="419.0" width="196.6" height="15" fill="#d6d640" rx="2" ry="2"/>
<text x="799.7" y="430.0">GraphKit::store_oop(Node*,..</text>
</g>
<g>
<title>GraphKit::store_to_memory(Node*, Node*, Node*, BasicType, int, MemNode::MemOrd, bool, bool, bool) (1 samples, 16.67%)</title><rect x="796.7" y="403.0" width="196.6" height="15" fill="#dede43" rx="2" ry="2"/>
<text x="799.7" y="414.0">GraphKit::store_to_memory(..</text>
</g>
<g>
<title>StoreNode::make(PhaseGVN&amp;, Node*, Node*, Node*, TypePtr const*, Node*, BasicType, MemNode::MemOrd) (1 samples, 16.67%)</title><rect x="796.7" y="387.0" width="196.6" height="15" fill="#dcdc42" rx="2" ry="2"/>
<text x="799.7" y="398.0">StoreNode::make(PhaseGVN&amp;,..</text>
</g>
<g>
<title>PhaseGVN::transform_no_reclaim(Node*) (1 samples, 16.67%)</title><rect x="796.7" y="371.0" width="196.6" height="15" fill="#dcdc42" rx="2" ry="2"/>
<text x="799.7" y="382.0">PhaseGVN::transform_no_rec..</text>
</g>
<g>
<title>NodeHash::hash_find_insert(Node*) (1 samples, 16.67%)</title><rect x="796.7" y="355.0" width="196.6" height="15" fill="#dede43" rx="2" ry="2"/>
<text x="799.7" y="366.0">NodeHash::hash_find_insert..</text>
</g>
<g>
<title>TypeNode::hash() const (1 samples, 16.67%)</title><rect x="796.7" y="339.0" width="196.6" height="15" fill="#c9c93c" rx="2" ry="2"/>
<text x="799.7" y="350.0">TypeNode::hash() const</text>
</g>
<g>
<title>Node::hash() const (1 samples, 16.67%)</title><rect x="796.7" y="323.0" width="196.6" height="15" fill="#cece3e" rx="2" ry="2"/>
<text x="799.7" y="334.0">Node::hash() const</text>
</g>
<g>
<title>VMThread::run() (1 samples, 16.67%)</title><rect x="993.3" y="1011.0" width="196.7" height="15" fill="#cece3e" rx="2" ry="2"/>
<text x="996.3" y="1022.0">VMThread::run()</text>
</g>
<g>
<title>VMThread::loop() (1 samples, 16.67%)</title><rect x="993.3" y="995.0" width="196.7" height="15" fill="#d8d841" rx="2" ry="2"/>
<text x="996.3" y="1006.0">VMThread::loop()</text>
</g>
<g>
<title>Monitor::wait(bool, long, bool) (1 samples, 16.67%)</title><rect x="993.3" y="979.0" width="196.7" height="15" fill="#dbdb42" rx="2" ry="2"/>
<text x="996.3" y="990.0">Monitor::wait(bool, long, ..</text>
</g>
<g>
<title>Monitor::IWait(Thread*, long) (1 samples, 16.67%)</title><rect x="993.3" y="963.0" width="196.7" height="15" fill="#dada42" rx="2" ry="2"/>
<text x="996.3" y="974.0">Monitor::IWait(Thread*, lo..</text>
</g>
<g>
<title>os::PlatformEvent::park(long) (1 samples, 16.67%)</title><rect x="993.3" y="947.0" width="196.7" height="15" fill="#d3d33f" rx="2" ry="2"/>
<text x="996.3" y="958.0">os::PlatformEvent::park(lo..</text>
</g>
<g>
<title>__psynch_cvwait (1 samples, 16.67%)</title><rect x="993.3" y="931.0" width="196.7" height="15" fill="#e76262" rx="2" ry="2"/>
<text x="996.3" y="942.0">__psynch_cvwait</text>
</g>
</g>
</svg>
