<?xml version="1.0" standalone="no"?>
<!DOCTYPE svg PUBLIC "-//W3C//DTD SVG 1.1//EN" "http://www.w3.org/Graphics/SVG/1.1/DTD/svg11.dtd">
<svg version="1.1" width="1200" height="1046" onload="init(evt)" viewBox="0 0 1200 1046" xmlns="http://www.w3.org/2000/svg" xmlns:xlink="http://www.w3.org/1999/xlink">
<style type="text/css">
	text { font-family:Verdana; font-size:12px; fill:rgb(0,0,0); }
	#search { opacity:0.1; cursor:pointer; }
	#search:hover, #search.show { opacity:1; }
	#subtitle { text-anchor:middle; font-color:rgb(160,160,160); }
	#title { text-anchor:middle; font-size:17px}
	#unzoom { cursor:pointer; }
	#frames > *:hover { stroke:black; stroke-width:0.5; cursor:pointer; }
	.hide { display:none; }
	.parent { opacity:0.5; }
</style>
<script type="text/ecmascript">
<![CDATA[
	"use strict";
	var details, searchbtn, unzoombtn, matchedtxt, svg, searching;
	function init(evt) {
		details = document.getElementById("details").firstChild;
		searchbtn = document.getElementById("search");
		unzoombtn = document.getElementById("unzoom");
		matchedtxt = document.getElementById("matched");
		svg = document.getElementsByTagName("svg")[0];
		searching = 0;
	}

	window.addEventListener("click", function(e) {
		var target = find_group(e.target);
		if (target) {
			if (target.nodeName == "a") {
				if (e.ctrlKey === false) return;
				e.preventDefault();
			}
			if (target.classList.contains("parent")) unzoom();
			zoom(target);
		}
		else if (e.target.id == "unzoom") unzoom();
		else if (e.target.id == "search") search_prompt();
	}, false)

	// mouse-over for info
	// show
	window.addEventListener("mouseover", function(e) {
		var target = find_group(e.target);
		if (target) details.nodeValue = "Function: " + g_to_text(target);
	}, false)

	// clear
	window.addEventListener("mouseout", function(e) {
		var target = find_group(e.target);
		if (target) details.nodeValue = ' ';
	}, false)

	// ctrl-F for search
	window.addEventListener("keydown",function (e) {
		if (e.keyCode === 114 || (e.ctrlKey && e.keyCode === 70)) {
			e.preventDefault();
			search_prompt();
		}
	}, false)

	// functions
	function find_child(node, selector) {
		var children = node.querySelectorAll(selector);
		if (children.length) return children[0];
		return;
	}
	function find_group(node) {
		var parent = node.parentElement;
		if (!parent) return;
		if (parent.id == "frames") return node;
		return find_group(parent);
	}
	function orig_save(e, attr, val) {
		if (e.attributes["_orig_" + attr] != undefined) return;
		if (e.attributes[attr] == undefined) return;
		if (val == undefined) val = e.attributes[attr].value;
		e.setAttribute("_orig_" + attr, val);
	}
	function orig_load(e, attr) {
		if (e.attributes["_orig_"+attr] == undefined) return;
		e.attributes[attr].value = e.attributes["_orig_" + attr].value;
		e.removeAttribute("_orig_"+attr);
	}
	function g_to_text(e) {
		var text = find_child(e, "title").firstChild.nodeValue;
		return (text)
	}
	function g_to_func(e) {
		var func = g_to_text(e);
		// if there's any manipulation we want to do to the function
		// name before it's searched, do it here before returning.
		return (func);
	}
	function update_text(e) {
		var r = find_child(e, "rect");
		var t = find_child(e, "text");
		var w = parseFloat(r.attributes.width.value) -3;
		var txt = find_child(e, "title").textContent.replace(/\([^(]*\)$/,"");
		t.attributes.x.value = parseFloat(r.attributes.x.value) + 3;

		// Smaller than this size won't fit anything
		if (w < 2 * 12 * 0.59) {
			t.textContent = "";
			return;
		}

		t.textContent = txt;
		// Fit in full text width
		if (/^ *$/.test(txt) || t.getSubStringLength(0, txt.length) < w)
			return;

		for (var x = txt.length - 2; x > 0; x--) {
			if (t.getSubStringLength(0, x + 2) <= w) {
				t.textContent = txt.substring(0, x) + "..";
				return;
			}
		}
		t.textContent = "";
	}

	// zoom
	function zoom_reset(e) {
		if (e.attributes != undefined) {
			orig_load(e, "x");
			orig_load(e, "width");
		}
		if (e.childNodes == undefined) return;
		for (var i = 0, c = e.childNodes; i < c.length; i++) {
			zoom_reset(c[i]);
		}
	}
	function zoom_child(e, x, ratio) {
		if (e.attributes != undefined) {
			if (e.attributes.x != undefined) {
				orig_save(e, "x");
				e.attributes.x.value = (parseFloat(e.attributes.x.value) - x - 10) * ratio + 10;
				if (e.tagName == "text")
					e.attributes.x.value = find_child(e.parentNode, "rect[x]").attributes.x.value + 3;
			}
			if (e.attributes.width != undefined) {
				orig_save(e, "width");
				e.attributes.width.value = parseFloat(e.attributes.width.value) * ratio;
			}
		}

		if (e.childNodes == undefined) return;
		for (var i = 0, c = e.childNodes; i < c.length; i++) {
			zoom_child(c[i], x - 10, ratio);
		}
	}
	function zoom_parent(e) {
		if (e.attributes) {
			if (e.attributes.x != undefined) {
				orig_save(e, "x");
				e.attributes.x.value = 10;
			}
			if (e.attributes.width != undefined) {
				orig_save(e, "width");
				e.attributes.width.value = parseInt(svg.width.baseVal.value) - (10 * 2);
			}
		}
		if (e.childNodes == undefined) return;
		for (var i = 0, c = e.childNodes; i < c.length; i++) {
			zoom_parent(c[i]);
		}
	}
	function zoom(node) {
		var attr = find_child(node, "rect").attributes;
		var width = parseFloat(attr.width.value);
		var xmin = parseFloat(attr.x.value);
		var xmax = parseFloat(xmin + width);
		var ymin = parseFloat(attr.y.value);
		var ratio = (svg.width.baseVal.value - 2 * 10) / width;

		// XXX: Workaround for JavaScript float issues (fix me)
		var fudge = 0.0001;

		unzoombtn.classList.remove("hide");

		var el = document.getElementById("frames").children;
		for (var i = 0; i < el.length; i++) {
			var e = el[i];
			var a = find_child(e, "rect").attributes;
			var ex = parseFloat(a.x.value);
			var ew = parseFloat(a.width.value);
			var upstack;
			// Is it an ancestor
			if (0 == 0) {
				upstack = parseFloat(a.y.value) > ymin;
			} else {
				upstack = parseFloat(a.y.value) < ymin;
			}
			if (upstack) {
				// Direct ancestor
				if (ex <= xmin && (ex+ew+fudge) >= xmax) {
					e.classList.add("parent");
					zoom_parent(e);
					update_text(e);
				}
				// not in current path
				else
					e.classList.add("hide");
			}
			// Children maybe
			else {
				// no common path
				if (ex < xmin || ex + fudge >= xmax) {
					e.classList.add("hide");
				}
				else {
					zoom_child(e, xmin, ratio);
					update_text(e);
				}
			}
		}
	}
	function unzoom() {
		unzoombtn.classList.add("hide");
		var el = document.getElementById("frames").children;
		for(var i = 0; i < el.length; i++) {
			el[i].classList.remove("parent");
			el[i].classList.remove("hide");
			zoom_reset(el[i]);
			update_text(el[i]);
		}
	}

	// search
	function reset_search() {
		var el = document.querySelectorAll("#frames rect");
		for (var i = 0; i < el.length; i++) {
			orig_load(el[i], "fill")
		}
	}
	function search_prompt() {
		if (!searching) {
			var term = prompt("Enter a search term (regexp " +
			    "allowed, eg: ^ext4_)", "");
			if (term != null) {
				search(term)
			}
		} else {
			reset_search();
			searching = 0;
			searchbtn.classList.remove("show");
			searchbtn.firstChild.nodeValue = "Search"
			matchedtxt.classList.add("hide");
			matchedtxt.firstChild.nodeValue = ""
		}
	}
	function search(term) {
		var re = new RegExp(term);
		var el = document.getElementById("frames").children;
		var matches = new Object();
		var maxwidth = 0;
		for (var i = 0; i < el.length; i++) {
			var e = el[i];
			var func = g_to_func(e);
			var rect = find_child(e, "rect");
			if (func == null || rect == null)
				continue;

			// Save max width. Only works as we have a root frame
			var w = parseFloat(rect.attributes.width.value);
			if (w > maxwidth)
				maxwidth = w;

			if (func.match(re)) {
				// highlight
				var x = parseFloat(rect.attributes.x.value);
				orig_save(rect, "fill");
				rect.attributes.fill.value = "rgb(230,0,230)";

				// remember matches
				if (matches[x] == undefined) {
					matches[x] = w;
				} else {
					if (w > matches[x]) {
						// overwrite with parent
						matches[x] = w;
					}
				}
				searching = 1;
			}
		}
		if (!searching)
			return;

		searchbtn.classList.add("show");
		searchbtn.firstChild.nodeValue = "Reset Search";

		// calculate percent matched, excluding vertical overlap
		var count = 0;
		var lastx = -1;
		var lastw = 0;
		var keys = Array();
		for (k in matches) {
			if (matches.hasOwnProperty(k))
				keys.push(k);
		}
		// sort the matched frames by their x location
		// ascending, then width descending
		keys.sort(function(a, b){
			return a - b;
		});
		// Step through frames saving only the biggest bottom-up frames
		// thanks to the sort order. This relies on the tree property
		// where children are always smaller than their parents.
		var fudge = 0.0001;	// JavaScript floating point
		for (var k in keys) {
			var x = parseFloat(keys[k]);
			var w = matches[keys[k]];
			if (x >= lastx + lastw - fudge) {
				count += w;
				lastx = x;
				lastw = w;
			}
		}
		// display matched percent
		matchedtxt.classList.remove("hide");
		var pct = 100 * count / maxwidth;
		if (pct != 100) pct = pct.toFixed(1)
		matchedtxt.firstChild.nodeValue = "Matched: " + pct + "%";
	}
]]>
</script>
<rect x="0" y="0" width="100%" height="100%" fill="rgb(240,240,220)"/>
<text id="title" x="600" y="24">Flame Graph</text>
<text id="details" x="10" y="1029"> </text>
<text id="unzoom" x="10" y="24" class="hide">Reset Zoom</text>
<text id="search" x="1090" y="24">Search</text>
<text id="matched" x="1090" y="1029"> </text>
<g id="frames">
<g>
<title>all (5 samples, 100.00%)</title><rect x="10.0" y="995.0" width="1180.0" height="15" fill="#e15a5a" rx="2" ry="2"/>
<text x="13.0" y="1006.0">all</text>
</g>
<g>
<title>com/example/Test.main (1 samples, 20.00%)</title><rect x="10.0" y="979.0" width="236.0" height="15" fill="#53e453" rx="2" ry="2"/>
<text x="13.0" y="990.0">com/example/Test.main</text>
</g>
<g>
<title>com/sentinellearn/A.a (1 samples, 20.00%)</title><rect x="10.0" y="963.0" width="236.0" height="15" fill="#66f766" rx="2" ry="2"/>
<text x="13.0" y="974.0">com/sentinellearn/A.a</text>
</g>
<g>
<title>java/io/PrintStream.println (1 samples, 20.00%)</title><rect x="10.0" y="947.0" width="236.0" height="15" fill="#5dee5d" rx="2" ry="2"/>
<text x="13.0" y="958.0">java/io/PrintStream.println</text>
</g>
<g>
<title>java/io/PrintStream.print (1 samples, 20.00%)</title><rect x="10.0" y="931.0" width="236.0" height="15" fill="#5ff05f" rx="2" ry="2"/>
<text x="13.0" y="942.0">java/io/PrintStream.print</text>
</g>
<g>
<title>java/io/PrintStream.write (1 samples, 20.00%)</title><rect x="10.0" y="915.0" width="236.0" height="15" fill="#56e756" rx="2" ry="2"/>
<text x="13.0" y="926.0">java/io/PrintStream.write</text>
</g>
<g>
<title>java/io/OutputStreamWriter.flushBuffer (1 samples, 20.00%)</title><rect x="10.0" y="899.0" width="236.0" height="15" fill="#51e251" rx="2" ry="2"/>
<text x="13.0" y="910.0">java/io/OutputStreamWriter.flus..</text>
</g>
<g>
<title>sun/nio/cs/StreamEncoder.flushBuffer (1 samples, 20.00%)</title><rect x="10.0" y="883.0" width="236.0" height="15" fill="#64f564" rx="2" ry="2"/>
<text x="13.0" y="894.0">sun/nio/cs/StreamEncoder.flushB..</text>
</g>
<g>
<title>sun/nio/cs/StreamEncoder.implFlushBuffer (1 samples, 20.00%)</title><rect x="10.0" y="867.0" width="236.0" height="15" fill="#64f564" rx="2" ry="2"/>
<text x="13.0" y="878.0">sun/nio/cs/StreamEncoder.implFl..</text>
</g>
<g>
<title>sun/nio/cs/StreamEncoder.writeBytes (1 samples, 20.00%)</title><rect x="10.0" y="851.0" width="236.0" height="15" fill="#6cfd6c" rx="2" ry="2"/>
<text x="13.0" y="862.0">sun/nio/cs/StreamEncoder.writeB..</text>
</g>
<g>
<title>java/io/PrintStream.write (1 samples, 20.00%)</title><rect x="10.0" y="835.0" width="236.0" height="15" fill="#5bec5b" rx="2" ry="2"/>
<text x="13.0" y="846.0">java/io/PrintStream.write</text>
</g>
<g>
<title>java/io/BufferedOutputStream.flush (1 samples, 20.00%)</title><rect x="10.0" y="819.0" width="236.0" height="15" fill="#5ff05f" rx="2" ry="2"/>
<text x="13.0" y="830.0">java/io/BufferedOutputStream.fl..</text>
</g>
<g>
<title>java/io/BufferedOutputStream.flushBuffer (1 samples, 20.00%)</title><rect x="10.0" y="803.0" width="236.0" height="15" fill="#68f968" rx="2" ry="2"/>
<text x="13.0" y="814.0">java/io/BufferedOutputStream.fl..</text>
</g>
<g>
<title>java/io/FileOutputStream.write (1 samples, 20.00%)</title><rect x="10.0" y="787.0" width="236.0" height="15" fill="#51e251" rx="2" ry="2"/>
<text x="13.0" y="798.0">java/io/FileOutputStream.write</text>
</g>
<g>
<title>java/io/FileOutputStream.writeBytes (1 samples, 20.00%)</title><rect x="10.0" y="771.0" width="236.0" height="15" fill="#51e251" rx="2" ry="2"/>
<text x="13.0" y="782.0">java/io/FileOutputStream.writeB..</text>
</g>
<g>
<title>Java_java_io_FileOutputStream_writeBytes (1 samples, 20.00%)</title><rect x="10.0" y="755.0" width="236.0" height="15" fill="#f06f6f" rx="2" ry="2"/>
<text x="13.0" y="766.0">Java_java_io_FileOutputStream_w..</text>
</g>
<g>
<title>writeBytes (1 samples, 20.00%)</title><rect x="10.0" y="739.0" width="236.0" height="15" fill="#f57474" rx="2" ry="2"/>
<text x="13.0" y="750.0">writeBytes</text>
</g>
<g>
<title>write (1 samples, 20.00%)</title><rect x="10.0" y="723.0" width="236.0" height="15" fill="#e15a5a" rx="2" ry="2"/>
<text x="13.0" y="734.0">write</text>
</g>
<g>
<title>java/lang/Thread.run (2 samples, 40.00%)</title><rect x="246.0" y="979.0" width="472.0" height="15" fill="#5bec5b" rx="2" ry="2"/>
<text x="249.0" y="990.0">java/lang/Thread.run</text>
</g>
<g>
<title>com/alibaba/arthas/deps/io/netty/util/concurrent/FastThreadLocalRunnable.run (1 samples, 20.00%)</title><rect x="246.0" y="963.0" width="236.0" height="15" fill="#52e352" rx="2" ry="2"/>
<text x="249.0" y="974.0">com/alibaba/arthas/deps/io/nett..</text>
</g>
<g>
<title>com/alibaba/arthas/deps/io/netty/util/internal/ThreadExecutorMap$2.run (1 samples, 20.00%)</title><rect x="246.0" y="947.0" width="236.0" height="15" fill="#5ced5c" rx="2" ry="2"/>
<text x="249.0" y="958.0">com/alibaba/arthas/deps/io/nett..</text>
</g>
<g>
<title>com/alibaba/arthas/deps/io/netty/util/concurrent/SingleThreadEventExecutor$4.run (1 samples, 20.00%)</title><rect x="246.0" y="931.0" width="236.0" height="15" fill="#64f564" rx="2" ry="2"/>
<text x="249.0" y="942.0">com/alibaba/arthas/deps/io/nett..</text>
</g>
<g>
<title>com/alibaba/arthas/deps/io/netty/channel/nio/NioEventLoop.run (1 samples, 20.00%)</title><rect x="246.0" y="915.0" width="236.0" height="15" fill="#61f261" rx="2" ry="2"/>
<text x="249.0" y="926.0">com/alibaba/arthas/deps/io/nett..</text>
</g>
<g>
<title>com/alibaba/arthas/deps/io/netty/channel/nio/NioEventLoop.processSelectedKeys (1 samples, 20.00%)</title><rect x="246.0" y="899.0" width="236.0" height="15" fill="#6bfc6b" rx="2" ry="2"/>
<text x="249.0" y="910.0">com/alibaba/arthas/deps/io/nett..</text>
</g>
<g>
<title>com/alibaba/arthas/deps/io/netty/channel/nio/NioEventLoop.processSelectedKeysOptimized (1 samples, 20.00%)</title><rect x="246.0" y="883.0" width="236.0" height="15" fill="#69fa69" rx="2" ry="2"/>
<text x="249.0" y="894.0">com/alibaba/arthas/deps/io/nett..</text>
</g>
<g>
<title>com/alibaba/arthas/deps/io/netty/channel/nio/NioEventLoop.processSelectedKey (1 samples, 20.00%)</title><rect x="246.0" y="867.0" width="236.0" height="15" fill="#5ff05f" rx="2" ry="2"/>
<text x="249.0" y="878.0">com/alibaba/arthas/deps/io/nett..</text>
</g>
<g>
<title>com/alibaba/arthas/deps/io/netty/channel/nio/AbstractNioByteChannel$NioByteUnsafe.read (1 samples, 20.00%)</title><rect x="246.0" y="851.0" width="236.0" height="15" fill="#52e352" rx="2" ry="2"/>
<text x="249.0" y="862.0">com/alibaba/arthas/deps/io/nett..</text>
</g>
<g>
<title>com/alibaba/arthas/deps/io/netty/channel/DefaultChannelPipeline.fireChannelRead (1 samples, 20.00%)</title><rect x="246.0" y="835.0" width="236.0" height="15" fill="#63f463" rx="2" ry="2"/>
<text x="249.0" y="846.0">com/alibaba/arthas/deps/io/nett..</text>
</g>
<g>
<title>com/alibaba/arthas/deps/io/netty/channel/AbstractChannelHandlerContext.invokeChannelRead (1 samples, 20.00%)</title><rect x="246.0" y="819.0" width="236.0" height="15" fill="#5ced5c" rx="2" ry="2"/>
<text x="249.0" y="830.0">com/alibaba/arthas/deps/io/nett..</text>
</g>
<g>
<title>com/alibaba/arthas/deps/io/netty/channel/AbstractChannelHandlerContext.invokeChannelRead (1 samples, 20.00%)</title><rect x="246.0" y="803.0" width="236.0" height="15" fill="#65f665" rx="2" ry="2"/>
<text x="249.0" y="814.0">com/alibaba/arthas/deps/io/nett..</text>
</g>
<g>
<title>com/alibaba/arthas/deps/io/netty/channel/DefaultChannelPipeline$HeadContext.channelRead (1 samples, 20.00%)</title><rect x="246.0" y="787.0" width="236.0" height="15" fill="#6bfc6b" rx="2" ry="2"/>
<text x="249.0" y="798.0">com/alibaba/arthas/deps/io/nett..</text>
</g>
<g>
<title>com/alibaba/arthas/deps/io/netty/channel/AbstractChannelHandlerContext.fireChannelRead (1 samples, 20.00%)</title><rect x="246.0" y="771.0" width="236.0" height="15" fill="#66f766" rx="2" ry="2"/>
<text x="249.0" y="782.0">com/alibaba/arthas/deps/io/nett..</text>
</g>
<g>
<title>com/alibaba/arthas/deps/io/netty/channel/AbstractChannelHandlerContext.invokeChannelRead (1 samples, 20.00%)</title><rect x="246.0" y="755.0" width="236.0" height="15" fill="#57e857" rx="2" ry="2"/>
<text x="249.0" y="766.0">com/alibaba/arthas/deps/io/nett..</text>
</g>
<g>
<title>com/alibaba/arthas/deps/io/netty/channel/AbstractChannelHandlerContext.invokeChannelRead (1 samples, 20.00%)</title><rect x="246.0" y="739.0" width="236.0" height="15" fill="#51e251" rx="2" ry="2"/>
<text x="249.0" y="750.0">com/alibaba/arthas/deps/io/nett..</text>
</g>
<g>
<title>io/termd/core/telnet/netty/TelnetChannelHandler.channelRead (1 samples, 20.00%)</title><rect x="246.0" y="723.0" width="236.0" height="15" fill="#66f766" rx="2" ry="2"/>
<text x="249.0" y="734.0">io/termd/core/telnet/netty/Teln..</text>
</g>
<g>
<title>io/termd/core/telnet/TelnetConnection.receive (1 samples, 20.00%)</title><rect x="246.0" y="707.0" width="236.0" height="15" fill="#59ea59" rx="2" ry="2"/>
<text x="249.0" y="718.0">io/termd/core/telnet/TelnetConn..</text>
</g>
<g>
<title>io/termd/core/telnet/TelnetConnection.flushDataIfNecessary (1 samples, 20.00%)</title><rect x="246.0" y="691.0" width="236.0" height="15" fill="#62f362" rx="2" ry="2"/>
<text x="249.0" y="702.0">io/termd/core/telnet/TelnetConn..</text>
</g>
<g>
<title>io/termd/core/telnet/TelnetConnection.flushData (1 samples, 20.00%)</title><rect x="246.0" y="675.0" width="236.0" height="15" fill="#66f766" rx="2" ry="2"/>
<text x="249.0" y="686.0">io/termd/core/telnet/TelnetConn..</text>
</g>
<g>
<title>io/termd/core/telnet/TelnetTtyConnection.onData (1 samples, 20.00%)</title><rect x="246.0" y="659.0" width="236.0" height="15" fill="#6dfe6d" rx="2" ry="2"/>
<text x="249.0" y="670.0">io/termd/core/telnet/TelnetTtyC..</text>
</g>
<g>
<title>io/termd/core/io/BinaryDecoder.write (1 samples, 20.00%)</title><rect x="246.0" y="643.0" width="236.0" height="15" fill="#5aeb5a" rx="2" ry="2"/>
<text x="249.0" y="654.0">io/termd/core/io/BinaryDecoder...</text>
</g>
<g>
<title>io/termd/core/io/BinaryDecoder.write (1 samples, 20.00%)</title><rect x="246.0" y="627.0" width="236.0" height="15" fill="#57e857" rx="2" ry="2"/>
<text x="249.0" y="638.0">io/termd/core/io/BinaryDecoder...</text>
</g>
<g>
<title>io/termd/core/tty/ReadBuffer.accept (1 samples, 20.00%)</title><rect x="246.0" y="611.0" width="236.0" height="15" fill="#6dfe6d" rx="2" ry="2"/>
<text x="249.0" y="622.0">io/termd/core/tty/ReadBuffer.ac..</text>
</g>
<g>
<title>io/termd/core/tty/ReadBuffer.accept (1 samples, 20.00%)</title><rect x="246.0" y="595.0" width="236.0" height="15" fill="#65f665" rx="2" ry="2"/>
<text x="249.0" y="606.0">io/termd/core/tty/ReadBuffer.ac..</text>
</g>
<g>
<title>io/termd/core/tty/TtyEventDecoder.accept (1 samples, 20.00%)</title><rect x="246.0" y="579.0" width="236.0" height="15" fill="#66f766" rx="2" ry="2"/>
<text x="249.0" y="590.0">io/termd/core/tty/TtyEventDecod..</text>
</g>
<g>
<title>io/termd/core/tty/TtyEventDecoder.accept (1 samples, 20.00%)</title><rect x="246.0" y="563.0" width="236.0" height="15" fill="#63f463" rx="2" ry="2"/>
<text x="249.0" y="574.0">io/termd/core/tty/TtyEventDecod..</text>
</g>
<g>
<title>io/termd/core/readline/Readline$Interaction$2.accept (1 samples, 20.00%)</title><rect x="246.0" y="547.0" width="236.0" height="15" fill="#52e352" rx="2" ry="2"/>
<text x="249.0" y="558.0">io/termd/core/readline/Readline..</text>
</g>
<g>
<title>io/termd/core/readline/Readline$Interaction$2.accept (1 samples, 20.00%)</title><rect x="246.0" y="531.0" width="236.0" height="15" fill="#62f362" rx="2" ry="2"/>
<text x="249.0" y="542.0">io/termd/core/readline/Readline..</text>
</g>
<g>
<title>io/termd/core/readline/Readline.access$500 (1 samples, 20.00%)</title><rect x="246.0" y="515.0" width="236.0" height="15" fill="#6afb6a" rx="2" ry="2"/>
<text x="249.0" y="526.0">io/termd/core/readline/Readline..</text>
</g>
<g>
<title>io/termd/core/readline/Readline.deliver (1 samples, 20.00%)</title><rect x="246.0" y="499.0" width="236.0" height="15" fill="#58e958" rx="2" ry="2"/>
<text x="249.0" y="510.0">io/termd/core/readline/Readline..</text>
</g>
<g>
<title>io/termd/core/readline/Readline$Interaction.access$200 (1 samples, 20.00%)</title><rect x="246.0" y="483.0" width="236.0" height="15" fill="#5dee5d" rx="2" ry="2"/>
<text x="249.0" y="494.0">io/termd/core/readline/Readline..</text>
</g>
<g>
<title>io/termd/core/readline/Readline$Interaction.handle (1 samples, 20.00%)</title><rect x="246.0" y="467.0" width="236.0" height="15" fill="#66f766" rx="2" ry="2"/>
<text x="249.0" y="478.0">io/termd/core/readline/Readline..</text>
</g>
<g>
<title>io/termd/core/readline/Readline$Interaction.refresh (1 samples, 20.00%)</title><rect x="246.0" y="451.0" width="236.0" height="15" fill="#5eef5e" rx="2" ry="2"/>
<text x="249.0" y="462.0">io/termd/core/readline/Readline..</text>
</g>
<g>
<title>io/termd/core/readline/Readline$Interaction.refresh (1 samples, 20.00%)</title><rect x="246.0" y="435.0" width="236.0" height="15" fill="#57e857" rx="2" ry="2"/>
<text x="249.0" y="446.0">io/termd/core/readline/Readline..</text>
</g>
<g>
<title>io/termd/core/tty/TtyOutputMode.accept (1 samples, 20.00%)</title><rect x="246.0" y="419.0" width="236.0" height="15" fill="#58e958" rx="2" ry="2"/>
<text x="249.0" y="430.0">io/termd/core/tty/TtyOutputMode..</text>
</g>
<g>
<title>io/termd/core/tty/TtyOutputMode.accept (1 samples, 20.00%)</title><rect x="246.0" y="403.0" width="236.0" height="15" fill="#5aeb5a" rx="2" ry="2"/>
<text x="249.0" y="414.0">io/termd/core/tty/TtyOutputMode..</text>
</g>
<g>
<title>io/termd/core/tty/TtyOutputMode.sendChunk (1 samples, 20.00%)</title><rect x="246.0" y="387.0" width="236.0" height="15" fill="#54e554" rx="2" ry="2"/>
<text x="249.0" y="398.0">io/termd/core/tty/TtyOutputMode..</text>
</g>
<g>
<title>io/termd/core/io/BinaryEncoder.accept (1 samples, 20.00%)</title><rect x="246.0" y="371.0" width="236.0" height="15" fill="#5eef5e" rx="2" ry="2"/>
<text x="249.0" y="382.0">io/termd/core/io/BinaryEncoder...</text>
</g>
<g>
<title>io/termd/core/io/BinaryEncoder.accept (1 samples, 20.00%)</title><rect x="246.0" y="355.0" width="236.0" height="15" fill="#6afb6a" rx="2" ry="2"/>
<text x="249.0" y="366.0">io/termd/core/io/BinaryEncoder...</text>
</g>
<g>
<title>io/termd/core/telnet/TelnetTtyConnection$2.accept (1 samples, 20.00%)</title><rect x="246.0" y="339.0" width="236.0" height="15" fill="#6bfc6b" rx="2" ry="2"/>
<text x="249.0" y="350.0">io/termd/core/telnet/TelnetTtyC..</text>
</g>
<g>
<title>io/termd/core/telnet/TelnetTtyConnection$2.accept (1 samples, 20.00%)</title><rect x="246.0" y="323.0" width="236.0" height="15" fill="#51e251" rx="2" ry="2"/>
<text x="249.0" y="334.0">io/termd/core/telnet/TelnetTtyC..</text>
</g>
<g>
<title>io/termd/core/telnet/TelnetConnection.write (1 samples, 20.00%)</title><rect x="246.0" y="307.0" width="236.0" height="15" fill="#6bfc6b" rx="2" ry="2"/>
<text x="249.0" y="318.0">io/termd/core/telnet/TelnetConn..</text>
</g>
<g>
<title>io/termd/core/telnet/netty/NettyTelnetConnection.send (1 samples, 20.00%)</title><rect x="246.0" y="291.0" width="236.0" height="15" fill="#5ff05f" rx="2" ry="2"/>
<text x="249.0" y="302.0">io/termd/core/telnet/netty/Nett..</text>
</g>
<g>
<title>com/alibaba/arthas/deps/io/netty/channel/AbstractChannelHandlerContext.writeAndFlush (1 samples, 20.00%)</title><rect x="246.0" y="275.0" width="236.0" height="15" fill="#5ff05f" rx="2" ry="2"/>
<text x="249.0" y="286.0">com/alibaba/arthas/deps/io/nett..</text>
</g>
<g>
<title>com/alibaba/arthas/deps/io/netty/channel/AbstractChannelHandlerContext.writeAndFlush (1 samples, 20.00%)</title><rect x="246.0" y="259.0" width="236.0" height="15" fill="#59ea59" rx="2" ry="2"/>
<text x="249.0" y="270.0">com/alibaba/arthas/deps/io/nett..</text>
</g>
<g>
<title>com/alibaba/arthas/deps/io/netty/channel/AbstractChannelHandlerContext.write (1 samples, 20.00%)</title><rect x="246.0" y="243.0" width="236.0" height="15" fill="#6dfe6d" rx="2" ry="2"/>
<text x="249.0" y="254.0">com/alibaba/arthas/deps/io/nett..</text>
</g>
<g>
<title>com/alibaba/arthas/deps/io/netty/channel/AbstractChannelHandlerContext.invokeWriteAndFlush (1 samples, 20.00%)</title><rect x="246.0" y="227.0" width="236.0" height="15" fill="#5eef5e" rx="2" ry="2"/>
<text x="249.0" y="238.0">com/alibaba/arthas/deps/io/nett..</text>
</g>
<g>
<title>com/alibaba/arthas/deps/io/netty/channel/AbstractChannelHandlerContext.invokeFlush0 (1 samples, 20.00%)</title><rect x="246.0" y="211.0" width="236.0" height="15" fill="#57e857" rx="2" ry="2"/>
<text x="249.0" y="222.0">com/alibaba/arthas/deps/io/nett..</text>
</g>
<g>
<title>com/alibaba/arthas/deps/io/netty/channel/DefaultChannelPipeline$HeadContext.flush (1 samples, 20.00%)</title><rect x="246.0" y="195.0" width="236.0" height="15" fill="#52e352" rx="2" ry="2"/>
<text x="249.0" y="206.0">com/alibaba/arthas/deps/io/nett..</text>
</g>
<g>
<title>com/alibaba/arthas/deps/io/netty/channel/AbstractChannel$AbstractUnsafe.flush (1 samples, 20.00%)</title><rect x="246.0" y="179.0" width="236.0" height="15" fill="#6cfd6c" rx="2" ry="2"/>
<text x="249.0" y="190.0">com/alibaba/arthas/deps/io/nett..</text>
</g>
<g>
<title>com/alibaba/arthas/deps/io/netty/channel/nio/AbstractNioChannel$AbstractNioUnsafe.flush0 (1 samples, 20.00%)</title><rect x="246.0" y="163.0" width="236.0" height="15" fill="#52e352" rx="2" ry="2"/>
<text x="249.0" y="174.0">com/alibaba/arthas/deps/io/nett..</text>
</g>
<g>
<title>com/alibaba/arthas/deps/io/netty/channel/AbstractChannel$AbstractUnsafe.flush0 (1 samples, 20.00%)</title><rect x="246.0" y="147.0" width="236.0" height="15" fill="#5ff05f" rx="2" ry="2"/>
<text x="249.0" y="158.0">com/alibaba/arthas/deps/io/nett..</text>
</g>
<g>
<title>com/alibaba/arthas/deps/io/netty/channel/socket/nio/NioSocketChannel.doWrite (1 samples, 20.00%)</title><rect x="246.0" y="131.0" width="236.0" height="15" fill="#5bec5b" rx="2" ry="2"/>
<text x="249.0" y="142.0">com/alibaba/arthas/deps/io/nett..</text>
</g>
<g>
<title>sun/nio/ch/SocketChannelImpl.write (1 samples, 20.00%)</title><rect x="246.0" y="115.0" width="236.0" height="15" fill="#58e958" rx="2" ry="2"/>
<text x="249.0" y="126.0">sun/nio/ch/SocketChannelImpl.wr..</text>
</g>
<g>
<title>sun/nio/ch/IOUtil.write (1 samples, 20.00%)</title><rect x="246.0" y="99.0" width="236.0" height="15" fill="#6bfc6b" rx="2" ry="2"/>
<text x="249.0" y="110.0">sun/nio/ch/IOUtil.write</text>
</g>
<g>
<title>sun/nio/ch/IOUtil.writeFromNativeBuffer (1 samples, 20.00%)</title><rect x="246.0" y="83.0" width="236.0" height="15" fill="#5ff05f" rx="2" ry="2"/>
<text x="249.0" y="94.0">sun/nio/ch/IOUtil.writeFromNati..</text>
</g>
<g>
<title>sun/nio/ch/SocketDispatcher.write (1 samples, 20.00%)</title><rect x="246.0" y="67.0" width="236.0" height="15" fill="#5dee5d" rx="2" ry="2"/>
<text x="249.0" y="78.0">sun/nio/ch/SocketDispatcher.write</text>
</g>
<g>
<title>sun/nio/ch/FileDispatcherImpl.write0 (1 samples, 20.00%)</title><rect x="246.0" y="51.0" width="236.0" height="15" fill="#6cfd6c" rx="2" ry="2"/>
<text x="249.0" y="62.0">sun/nio/ch/FileDispatcherImpl.w..</text>
</g>
<g>
<title>write (1 samples, 20.00%)</title><rect x="246.0" y="35.0" width="236.0" height="15" fill="#e25c5c" rx="2" ry="2"/>
<text x="249.0" y="46.0">write</text>
</g>
<g>
<title>java/util/concurrent/ThreadPoolExecutor$Worker.run (1 samples, 20.00%)</title><rect x="482.0" y="963.0" width="236.0" height="15" fill="#66f766" rx="2" ry="2"/>
<text x="485.0" y="974.0">java/util/concurrent/ThreadPool..</text>
</g>
<g>
<title>java/util/concurrent/ThreadPoolExecutor.runWorker (1 samples, 20.00%)</title><rect x="482.0" y="947.0" width="236.0" height="15" fill="#67f867" rx="2" ry="2"/>
<text x="485.0" y="958.0">java/util/concurrent/ThreadPool..</text>
</g>
<g>
<title>java/util/concurrent/ScheduledThreadPoolExecutor$ScheduledFutureTask.run (1 samples, 20.00%)</title><rect x="482.0" y="931.0" width="236.0" height="15" fill="#68f968" rx="2" ry="2"/>
<text x="485.0" y="942.0">java/util/concurrent/ScheduledT..</text>
</g>
<g>
<title>java/util/concurrent/ScheduledThreadPoolExecutor$ScheduledFutureTask.access$201 (1 samples, 20.00%)</title><rect x="482.0" y="915.0" width="236.0" height="15" fill="#53e453" rx="2" ry="2"/>
<text x="485.0" y="926.0">java/util/concurrent/ScheduledT..</text>
</g>
<g>
<title>java/util/concurrent/FutureTask.run (1 samples, 20.00%)</title><rect x="482.0" y="899.0" width="236.0" height="15" fill="#50e150" rx="2" ry="2"/>
<text x="485.0" y="910.0">java/util/concurrent/FutureTask..</text>
</g>
<g>
<title>java/util/concurrent/Executors$RunnableAdapter.call (1 samples, 20.00%)</title><rect x="482.0" y="883.0" width="236.0" height="15" fill="#64f564" rx="2" ry="2"/>
<text x="485.0" y="894.0">java/util/concurrent/Executors$..</text>
</g>
<g>
<title>com/taobao/arthas/core/shell/system/impl/ProcessImpl$CommandProcessTask.run (1 samples, 20.00%)</title><rect x="482.0" y="867.0" width="236.0" height="15" fill="#6afb6a" rx="2" ry="2"/>
<text x="485.0" y="878.0">com/taobao/arthas/core/shell/sy..</text>
</g>
<g>
<title>com/taobao/arthas/core/shell/command/impl/AnnotatedCommandImpl$ProcessHandler.handle (1 samples, 20.00%)</title><rect x="482.0" y="851.0" width="236.0" height="15" fill="#62f362" rx="2" ry="2"/>
<text x="485.0" y="862.0">com/taobao/arthas/core/shell/co..</text>
</g>
<g>
<title>com/taobao/arthas/core/shell/command/impl/AnnotatedCommandImpl$ProcessHandler.handle (1 samples, 20.00%)</title><rect x="482.0" y="835.0" width="236.0" height="15" fill="#66f766" rx="2" ry="2"/>
<text x="485.0" y="846.0">com/taobao/arthas/core/shell/co..</text>
</g>
<g>
<title>com/taobao/arthas/core/shell/command/impl/AnnotatedCommandImpl.access$100 (1 samples, 20.00%)</title><rect x="482.0" y="819.0" width="236.0" height="15" fill="#65f665" rx="2" ry="2"/>
<text x="485.0" y="830.0">com/taobao/arthas/core/shell/co..</text>
</g>
<g>
<title>com/taobao/arthas/core/shell/command/impl/AnnotatedCommandImpl.process (1 samples, 20.00%)</title><rect x="482.0" y="803.0" width="236.0" height="15" fill="#6dfe6d" rx="2" ry="2"/>
<text x="485.0" y="814.0">com/taobao/arthas/core/shell/co..</text>
</g>
<g>
<title>com/taobao/arthas/core/command/monitor200/ProfilerCommand.process (1 samples, 20.00%)</title><rect x="482.0" y="787.0" width="236.0" height="15" fill="#6afb6a" rx="2" ry="2"/>
<text x="485.0" y="798.0">com/taobao/arthas/core/command/..</text>
</g>
<g>
<title>com/taobao/arthas/core/command/monitor200/ProfilerCommand.execute (1 samples, 20.00%)</title><rect x="482.0" y="771.0" width="236.0" height="15" fill="#56e756" rx="2" ry="2"/>
<text x="485.0" y="782.0">com/taobao/arthas/core/command/..</text>
</g>
<g>
<title>one/profiler/AsyncProfiler.execute (1 samples, 20.00%)</title><rect x="482.0" y="755.0" width="236.0" height="15" fill="#59ea59" rx="2" ry="2"/>
<text x="485.0" y="766.0">one/profiler/AsyncProfiler.exec..</text>
</g>
<g>
<title>one/profiler/AsyncProfiler.execute0 (1 samples, 20.00%)</title><rect x="482.0" y="739.0" width="236.0" height="15" fill="#5aeb5a" rx="2" ry="2"/>
<text x="485.0" y="750.0">one/profiler/AsyncProfiler.exec..</text>
</g>
<g>
<title>java/lang/ClassLoader.loadClass (1 samples, 20.00%)</title><rect x="482.0" y="723.0" width="236.0" height="15" fill="#5ff05f" rx="2" ry="2"/>
<text x="485.0" y="734.0">java/lang/ClassLoader.loadClass</text>
</g>
<g>
<title>com/taobao/arthas/agent/ArthasClassloader.loadClass (1 samples, 20.00%)</title><rect x="482.0" y="707.0" width="236.0" height="15" fill="#61f261" rx="2" ry="2"/>
<text x="485.0" y="718.0">com/taobao/arthas/agent/ArthasC..</text>
</g>
<g>
<title>SharedRuntime::resolve_opt_virtual_call_C(JavaThread*) (1 samples, 20.00%)</title><rect x="482.0" y="691.0" width="236.0" height="15" fill="#e1e144" rx="2" ry="2"/>
<text x="485.0" y="702.0">SharedRuntime::resolve_opt_virt..</text>
</g>
<g>
<title>SharedRuntime::resolve_helper(JavaThread*, bool, bool, Thread*) (1 samples, 20.00%)</title><rect x="482.0" y="675.0" width="236.0" height="15" fill="#d4d440" rx="2" ry="2"/>
<text x="485.0" y="686.0">SharedRuntime::resolve_helper(J..</text>
</g>
<g>
<title>SharedRuntime::resolve_sub_helper(JavaThread*, bool, bool, Thread*) (1 samples, 20.00%)</title><rect x="482.0" y="659.0" width="236.0" height="15" fill="#e1e144" rx="2" ry="2"/>
<text x="485.0" y="670.0">SharedRuntime::resolve_sub_help..</text>
</g>
<g>
<title>CompiledIC::set_to_monomorphic(CompiledICInfo&amp;) (1 samples, 20.00%)</title><rect x="482.0" y="643.0" width="236.0" height="15" fill="#d0d03e" rx="2" ry="2"/>
<text x="485.0" y="654.0">CompiledIC::set_to_monomorphic(..</text>
</g>
<g>
<title>CompiledIC::internal_set_ic_destination(unsigned char*, bool, void*, bool) (1 samples, 20.00%)</title><rect x="482.0" y="627.0" width="236.0" height="15" fill="#d4d440" rx="2" ry="2"/>
<text x="485.0" y="638.0">CompiledIC::internal_set_ic_des..</text>
</g>
<g>
<title>thread_start (2 samples, 40.00%)</title><rect x="718.0" y="979.0" width="472.0" height="15" fill="#f16f6f" rx="2" ry="2"/>
<text x="721.0" y="990.0">thread_start</text>
</g>
<g>
<title>_pthread_start (2 samples, 40.00%)</title><rect x="718.0" y="963.0" width="472.0" height="15" fill="#ef6c6c" rx="2" ry="2"/>
<text x="721.0" y="974.0">_pthread_start</text>
</g>
<g>
<title>_pthread_body (2 samples, 40.00%)</title><rect x="718.0" y="947.0" width="472.0" height="15" fill="#e96565" rx="2" ry="2"/>
<text x="721.0" y="958.0">_pthread_body</text>
</g>
<g>
<title>java_start(Thread*) (2 samples, 40.00%)</title><rect x="718.0" y="931.0" width="472.0" height="15" fill="#e66161" rx="2" ry="2"/>
<text x="721.0" y="942.0">java_start(Thread*)</text>
</g>
<g>
<title>VMThread::run() (1 samples, 20.00%)</title><rect x="718.0" y="915.0" width="236.0" height="15" fill="#cccc3d" rx="2" ry="2"/>
<text x="721.0" y="926.0">VMThread::run()</text>
</g>
<g>
<title>VMThread::loop() (1 samples, 20.00%)</title><rect x="718.0" y="899.0" width="236.0" height="15" fill="#d9d941" rx="2" ry="2"/>
<text x="721.0" y="910.0">VMThread::loop()</text>
</g>
<g>
<title>SafepointSynchronize::begin() (1 samples, 20.00%)</title><rect x="718.0" y="883.0" width="236.0" height="15" fill="#e0e044" rx="2" ry="2"/>
<text x="721.0" y="894.0">SafepointSynchronize::begin()</text>
</g>
<g>
<title>SafepointSynchronize::do_cleanup_tasks() (1 samples, 20.00%)</title><rect x="718.0" y="867.0" width="236.0" height="15" fill="#c8c83c" rx="2" ry="2"/>
<text x="721.0" y="878.0">SafepointSynchronize::do_cleanu..</text>
</g>
<g>
<title>Threads::nmethods_do(CodeBlobClosure*) (1 samples, 20.00%)</title><rect x="718.0" y="851.0" width="236.0" height="15" fill="#d8d841" rx="2" ry="2"/>
<text x="721.0" y="862.0">Threads::nmethods_do(CodeBlobCl..</text>
</g>
<g>
<title>JavaThread::nmethods_do(CodeBlobClosure*) (1 samples, 20.00%)</title><rect x="718.0" y="835.0" width="236.0" height="15" fill="#d6d640" rx="2" ry="2"/>
<text x="721.0" y="846.0">JavaThread::nmethods_do(CodeBlo..</text>
</g>
<g>
<title>StackFrameStream::next() (1 samples, 20.00%)</title><rect x="718.0" y="819.0" width="236.0" height="15" fill="#e4e445" rx="2" ry="2"/>
<text x="721.0" y="830.0">StackFrameStream::next()</text>
</g>
<g>
<title>frame::sender(RegisterMap*) const (1 samples, 20.00%)</title><rect x="718.0" y="803.0" width="236.0" height="15" fill="#dede43" rx="2" ry="2"/>
<text x="721.0" y="814.0">frame::sender(RegisterMap*) const</text>
</g>
<g>
<title>frame::sender_for_interpreter_frame(RegisterMap*) const (1 samples, 20.00%)</title><rect x="718.0" y="787.0" width="236.0" height="15" fill="#d8d841" rx="2" ry="2"/>
<text x="721.0" y="798.0">frame::sender_for_interpreter_f..</text>
</g>
<g>
<title>is_error_reported() (1 samples, 20.00%)</title><rect x="954.0" y="915.0" width="236.0" height="15" fill="#fb7d7d" rx="2" ry="2"/>
<text x="957.0" y="926.0">is_error_reported()</text>
</g>
</g>
</svg>
