<?xml version="1.0" standalone="no"?>
<!DOCTYPE svg PUBLIC "-//W3C//DTD SVG 1.1//EN" "http://www.w3.org/Graphics/SVG/1.1/DTD/svg11.dtd">
<svg version="1.1" width="1200" height="1222" onload="init(evt)" viewBox="0 0 1200 1222" xmlns="http://www.w3.org/2000/svg" xmlns:xlink="http://www.w3.org/1999/xlink">
<style type="text/css">
	text { font-family:Verdana; font-size:12px; fill:rgb(0,0,0); }
	#search { opacity:0.1; cursor:pointer; }
	#search:hover, #search.show { opacity:1; }
	#subtitle { text-anchor:middle; font-color:rgb(160,160,160); }
	#title { text-anchor:middle; font-size:17px}
	#unzoom { cursor:pointer; }
	#frames > *:hover { stroke:black; stroke-width:0.5; cursor:pointer; }
	.hide { display:none; }
	.parent { opacity:0.5; }
</style>
<script type="text/ecmascript">
<![CDATA[
	"use strict";
	var details, searchbtn, unzoombtn, matchedtxt, svg, searching;
	function init(evt) {
		details = document.getElementById("details").firstChild;
		searchbtn = document.getElementById("search");
		unzoombtn = document.getElementById("unzoom");
		matchedtxt = document.getElementById("matched");
		svg = document.getElementsByTagName("svg")[0];
		searching = 0;
	}

	window.addEventListener("click", function(e) {
		var target = find_group(e.target);
		if (target) {
			if (target.nodeName == "a") {
				if (e.ctrlKey === false) return;
				e.preventDefault();
			}
			if (target.classList.contains("parent")) unzoom();
			zoom(target);
		}
		else if (e.target.id == "unzoom") unzoom();
		else if (e.target.id == "search") search_prompt();
	}, false)

	// mouse-over for info
	// show
	window.addEventListener("mouseover", function(e) {
		var target = find_group(e.target);
		if (target) details.nodeValue = "Function: " + g_to_text(target);
	}, false)

	// clear
	window.addEventListener("mouseout", function(e) {
		var target = find_group(e.target);
		if (target) details.nodeValue = ' ';
	}, false)

	// ctrl-F for search
	window.addEventListener("keydown",function (e) {
		if (e.keyCode === 114 || (e.ctrlKey && e.keyCode === 70)) {
			e.preventDefault();
			search_prompt();
		}
	}, false)

	// functions
	function find_child(node, selector) {
		var children = node.querySelectorAll(selector);
		if (children.length) return children[0];
		return;
	}
	function find_group(node) {
		var parent = node.parentElement;
		if (!parent) return;
		if (parent.id == "frames") return node;
		return find_group(parent);
	}
	function orig_save(e, attr, val) {
		if (e.attributes["_orig_" + attr] != undefined) return;
		if (e.attributes[attr] == undefined) return;
		if (val == undefined) val = e.attributes[attr].value;
		e.setAttribute("_orig_" + attr, val);
	}
	function orig_load(e, attr) {
		if (e.attributes["_orig_"+attr] == undefined) return;
		e.attributes[attr].value = e.attributes["_orig_" + attr].value;
		e.removeAttribute("_orig_"+attr);
	}
	function g_to_text(e) {
		var text = find_child(e, "title").firstChild.nodeValue;
		return (text)
	}
	function g_to_func(e) {
		var func = g_to_text(e);
		// if there's any manipulation we want to do to the function
		// name before it's searched, do it here before returning.
		return (func);
	}
	function update_text(e) {
		var r = find_child(e, "rect");
		var t = find_child(e, "text");
		var w = parseFloat(r.attributes.width.value) -3;
		var txt = find_child(e, "title").textContent.replace(/\([^(]*\)$/,"");
		t.attributes.x.value = parseFloat(r.attributes.x.value) + 3;

		// Smaller than this size won't fit anything
		if (w < 2 * 12 * 0.59) {
			t.textContent = "";
			return;
		}

		t.textContent = txt;
		// Fit in full text width
		if (/^ *$/.test(txt) || t.getSubStringLength(0, txt.length) < w)
			return;

		for (var x = txt.length - 2; x > 0; x--) {
			if (t.getSubStringLength(0, x + 2) <= w) {
				t.textContent = txt.substring(0, x) + "..";
				return;
			}
		}
		t.textContent = "";
	}

	// zoom
	function zoom_reset(e) {
		if (e.attributes != undefined) {
			orig_load(e, "x");
			orig_load(e, "width");
		}
		if (e.childNodes == undefined) return;
		for (var i = 0, c = e.childNodes; i < c.length; i++) {
			zoom_reset(c[i]);
		}
	}
	function zoom_child(e, x, ratio) {
		if (e.attributes != undefined) {
			if (e.attributes.x != undefined) {
				orig_save(e, "x");
				e.attributes.x.value = (parseFloat(e.attributes.x.value) - x - 10) * ratio + 10;
				if (e.tagName == "text")
					e.attributes.x.value = find_child(e.parentNode, "rect[x]").attributes.x.value + 3;
			}
			if (e.attributes.width != undefined) {
				orig_save(e, "width");
				e.attributes.width.value = parseFloat(e.attributes.width.value) * ratio;
			}
		}

		if (e.childNodes == undefined) return;
		for (var i = 0, c = e.childNodes; i < c.length; i++) {
			zoom_child(c[i], x - 10, ratio);
		}
	}
	function zoom_parent(e) {
		if (e.attributes) {
			if (e.attributes.x != undefined) {
				orig_save(e, "x");
				e.attributes.x.value = 10;
			}
			if (e.attributes.width != undefined) {
				orig_save(e, "width");
				e.attributes.width.value = parseInt(svg.width.baseVal.value) - (10 * 2);
			}
		}
		if (e.childNodes == undefined) return;
		for (var i = 0, c = e.childNodes; i < c.length; i++) {
			zoom_parent(c[i]);
		}
	}
	function zoom(node) {
		var attr = find_child(node, "rect").attributes;
		var width = parseFloat(attr.width.value);
		var xmin = parseFloat(attr.x.value);
		var xmax = parseFloat(xmin + width);
		var ymin = parseFloat(attr.y.value);
		var ratio = (svg.width.baseVal.value - 2 * 10) / width;

		// XXX: Workaround for JavaScript float issues (fix me)
		var fudge = 0.0001;

		unzoombtn.classList.remove("hide");

		var el = document.getElementById("frames").children;
		for (var i = 0; i < el.length; i++) {
			var e = el[i];
			var a = find_child(e, "rect").attributes;
			var ex = parseFloat(a.x.value);
			var ew = parseFloat(a.width.value);
			var upstack;
			// Is it an ancestor
			if (0 == 0) {
				upstack = parseFloat(a.y.value) > ymin;
			} else {
				upstack = parseFloat(a.y.value) < ymin;
			}
			if (upstack) {
				// Direct ancestor
				if (ex <= xmin && (ex+ew+fudge) >= xmax) {
					e.classList.add("parent");
					zoom_parent(e);
					update_text(e);
				}
				// not in current path
				else
					e.classList.add("hide");
			}
			// Children maybe
			else {
				// no common path
				if (ex < xmin || ex + fudge >= xmax) {
					e.classList.add("hide");
				}
				else {
					zoom_child(e, xmin, ratio);
					update_text(e);
				}
			}
		}
	}
	function unzoom() {
		unzoombtn.classList.add("hide");
		var el = document.getElementById("frames").children;
		for(var i = 0; i < el.length; i++) {
			el[i].classList.remove("parent");
			el[i].classList.remove("hide");
			zoom_reset(el[i]);
			update_text(el[i]);
		}
	}

	// search
	function reset_search() {
		var el = document.querySelectorAll("#frames rect");
		for (var i = 0; i < el.length; i++) {
			orig_load(el[i], "fill")
		}
	}
	function search_prompt() {
		if (!searching) {
			var term = prompt("Enter a search term (regexp " +
			    "allowed, eg: ^ext4_)", "");
			if (term != null) {
				search(term)
			}
		} else {
			reset_search();
			searching = 0;
			searchbtn.classList.remove("show");
			searchbtn.firstChild.nodeValue = "Search"
			matchedtxt.classList.add("hide");
			matchedtxt.firstChild.nodeValue = ""
		}
	}
	function search(term) {
		var re = new RegExp(term);
		var el = document.getElementById("frames").children;
		var matches = new Object();
		var maxwidth = 0;
		for (var i = 0; i < el.length; i++) {
			var e = el[i];
			var func = g_to_func(e);
			var rect = find_child(e, "rect");
			if (func == null || rect == null)
				continue;

			// Save max width. Only works as we have a root frame
			var w = parseFloat(rect.attributes.width.value);
			if (w > maxwidth)
				maxwidth = w;

			if (func.match(re)) {
				// highlight
				var x = parseFloat(rect.attributes.x.value);
				orig_save(rect, "fill");
				rect.attributes.fill.value = "rgb(230,0,230)";

				// remember matches
				if (matches[x] == undefined) {
					matches[x] = w;
				} else {
					if (w > matches[x]) {
						// overwrite with parent
						matches[x] = w;
					}
				}
				searching = 1;
			}
		}
		if (!searching)
			return;

		searchbtn.classList.add("show");
		searchbtn.firstChild.nodeValue = "Reset Search";

		// calculate percent matched, excluding vertical overlap
		var count = 0;
		var lastx = -1;
		var lastw = 0;
		var keys = Array();
		for (k in matches) {
			if (matches.hasOwnProperty(k))
				keys.push(k);
		}
		// sort the matched frames by their x location
		// ascending, then width descending
		keys.sort(function(a, b){
			return a - b;
		});
		// Step through frames saving only the biggest bottom-up frames
		// thanks to the sort order. This relies on the tree property
		// where children are always smaller than their parents.
		var fudge = 0.0001;	// JavaScript floating point
		for (var k in keys) {
			var x = parseFloat(keys[k]);
			var w = matches[keys[k]];
			if (x >= lastx + lastw - fudge) {
				count += w;
				lastx = x;
				lastw = w;
			}
		}
		// display matched percent
		matchedtxt.classList.remove("hide");
		var pct = 100 * count / maxwidth;
		if (pct != 100) pct = pct.toFixed(1)
		matchedtxt.firstChild.nodeValue = "Matched: " + pct + "%";
	}
]]>
</script>
<rect x="0" y="0" width="100%" height="100%" fill="rgb(240,240,220)"/>
<text id="title" x="600" y="24">Flame Graph</text>
<text id="details" x="10" y="1205"> </text>
<text id="unzoom" x="10" y="24" class="hide">Reset Zoom</text>
<text id="search" x="1090" y="24">Search</text>
<text id="matched" x="1090" y="1205"> </text>
<g id="frames">
<g>
<title>all (17 samples, 100.00%)</title><rect x="10.0" y="1171.0" width="1180.0" height="15" fill="#f37272" rx="2" ry="2"/>
<text x="13.0" y="1182.0">all</text>
</g>
<g>
<title>com/example/Test.main (3 samples, 17.65%)</title><rect x="10.0" y="1155.0" width="208.2" height="15" fill="#69fa69" rx="2" ry="2"/>
<text x="13.0" y="1166.0">com/example/Test.main</text>
</g>
<g>
<title>com/sentinellearn/A.a (2 samples, 11.76%)</title><rect x="10.0" y="1139.0" width="138.8" height="15" fill="#54e554" rx="2" ry="2"/>
<text x="13.0" y="1150.0">com/sentinellearn..</text>
</g>
<g>
<title>java/io/PrintStream.println (2 samples, 11.76%)</title><rect x="10.0" y="1123.0" width="138.8" height="15" fill="#56e756" rx="2" ry="2"/>
<text x="13.0" y="1134.0">java/io/PrintStre..</text>
</g>
<g>
<title>java/io/PrintStream.print (2 samples, 11.76%)</title><rect x="10.0" y="1107.0" width="138.8" height="15" fill="#65f665" rx="2" ry="2"/>
<text x="13.0" y="1118.0">java/io/PrintStre..</text>
</g>
<g>
<title>java/io/PrintStream.write (2 samples, 11.76%)</title><rect x="10.0" y="1091.0" width="138.8" height="15" fill="#53e453" rx="2" ry="2"/>
<text x="13.0" y="1102.0">java/io/PrintStre..</text>
</g>
<g>
<title>java/io/OutputStreamWriter.flushBuffer (2 samples, 11.76%)</title><rect x="10.0" y="1075.0" width="138.8" height="15" fill="#52e352" rx="2" ry="2"/>
<text x="13.0" y="1086.0">java/io/OutputStr..</text>
</g>
<g>
<title>sun/nio/cs/StreamEncoder.flushBuffer (2 samples, 11.76%)</title><rect x="10.0" y="1059.0" width="138.8" height="15" fill="#58e958" rx="2" ry="2"/>
<text x="13.0" y="1070.0">sun/nio/cs/Stream..</text>
</g>
<g>
<title>sun/nio/cs/StreamEncoder.implFlushBuffer (2 samples, 11.76%)</title><rect x="10.0" y="1043.0" width="138.8" height="15" fill="#50e150" rx="2" ry="2"/>
<text x="13.0" y="1054.0">sun/nio/cs/Stream..</text>
</g>
<g>
<title>sun/nio/cs/StreamEncoder.writeBytes (2 samples, 11.76%)</title><rect x="10.0" y="1027.0" width="138.8" height="15" fill="#5ced5c" rx="2" ry="2"/>
<text x="13.0" y="1038.0">sun/nio/cs/Stream..</text>
</g>
<g>
<title>java/io/PrintStream.write (2 samples, 11.76%)</title><rect x="10.0" y="1011.0" width="138.8" height="15" fill="#50e150" rx="2" ry="2"/>
<text x="13.0" y="1022.0">java/io/PrintStre..</text>
</g>
<g>
<title>java/io/BufferedOutputStream.flush (2 samples, 11.76%)</title><rect x="10.0" y="995.0" width="138.8" height="15" fill="#65f665" rx="2" ry="2"/>
<text x="13.0" y="1006.0">java/io/BufferedO..</text>
</g>
<g>
<title>java/io/BufferedOutputStream.flushBuffer (2 samples, 11.76%)</title><rect x="10.0" y="979.0" width="138.8" height="15" fill="#6cfd6c" rx="2" ry="2"/>
<text x="13.0" y="990.0">java/io/BufferedO..</text>
</g>
<g>
<title>java/io/FileOutputStream.write (2 samples, 11.76%)</title><rect x="10.0" y="963.0" width="138.8" height="15" fill="#57e857" rx="2" ry="2"/>
<text x="13.0" y="974.0">java/io/FileOutpu..</text>
</g>
<g>
<title>java/io/FileOutputStream.writeBytes (2 samples, 11.76%)</title><rect x="10.0" y="947.0" width="138.8" height="15" fill="#55e655" rx="2" ry="2"/>
<text x="13.0" y="958.0">java/io/FileOutpu..</text>
</g>
<g>
<title>Java_java_io_FileOutputStream_writeBytes (2 samples, 11.76%)</title><rect x="10.0" y="931.0" width="138.8" height="15" fill="#ea6666" rx="2" ry="2"/>
<text x="13.0" y="942.0">Java_java_io_File..</text>
</g>
<g>
<title>writeBytes (2 samples, 11.76%)</title><rect x="10.0" y="915.0" width="138.8" height="15" fill="#fb7d7d" rx="2" ry="2"/>
<text x="13.0" y="926.0">writeBytes</text>
</g>
<g>
<title>handleWrite (1 samples, 5.88%)</title><rect x="10.0" y="899.0" width="69.4" height="15" fill="#f47474" rx="2" ry="2"/>
<text x="13.0" y="910.0">handleW..</text>
</g>
<g>
<title>write (1 samples, 5.88%)</title><rect x="79.4" y="899.0" width="69.4" height="15" fill="#e56060" rx="2" ry="2"/>
<text x="82.4" y="910.0">write</text>
</g>
<g>
<title>java/util/concurrent/locks/LockSupport.parkNanos (1 samples, 5.88%)</title><rect x="148.8" y="1139.0" width="69.4" height="15" fill="#64f564" rx="2" ry="2"/>
<text x="151.8" y="1150.0">java/ut..</text>
</g>
<g>
<title>sun/misc/Unsafe.park (1 samples, 5.88%)</title><rect x="148.8" y="1123.0" width="69.4" height="15" fill="#5bec5b" rx="2" ry="2"/>
<text x="151.8" y="1134.0">sun/mis..</text>
</g>
<g>
<title>Unsafe_Park (1 samples, 5.88%)</title><rect x="148.8" y="1107.0" width="69.4" height="15" fill="#ec6969" rx="2" ry="2"/>
<text x="151.8" y="1118.0">Unsafe_..</text>
</g>
<g>
<title>Parker::park(bool, long) (1 samples, 5.88%)</title><rect x="148.8" y="1091.0" width="69.4" height="15" fill="#d6d640" rx="2" ry="2"/>
<text x="151.8" y="1102.0">Parker:..</text>
</g>
<g>
<title>__psynch_cvwait (1 samples, 5.88%)</title><rect x="148.8" y="1075.0" width="69.4" height="15" fill="#e55f5f" rx="2" ry="2"/>
<text x="151.8" y="1086.0">__psync..</text>
</g>
<g>
<title>java/lang/Thread.run (5 samples, 29.41%)</title><rect x="218.2" y="1155.0" width="347.1" height="15" fill="#61f261" rx="2" ry="2"/>
<text x="221.2" y="1166.0">java/lang/Thread.run</text>
</g>
<g>
<title>com/alibaba/arthas/deps/io/netty/util/concurrent/FastThreadLocalRunnable.run (1 samples, 5.88%)</title><rect x="218.2" y="1139.0" width="69.4" height="15" fill="#69fa69" rx="2" ry="2"/>
<text x="221.2" y="1150.0">com/ali..</text>
</g>
<g>
<title>com/alibaba/arthas/deps/io/netty/util/internal/ThreadExecutorMap$2.run (1 samples, 5.88%)</title><rect x="218.2" y="1123.0" width="69.4" height="15" fill="#61f261" rx="2" ry="2"/>
<text x="221.2" y="1134.0">com/ali..</text>
</g>
<g>
<title>com/alibaba/arthas/deps/io/netty/util/concurrent/SingleThreadEventExecutor$4.run (1 samples, 5.88%)</title><rect x="218.2" y="1107.0" width="69.4" height="15" fill="#6cfd6c" rx="2" ry="2"/>
<text x="221.2" y="1118.0">com/ali..</text>
</g>
<g>
<title>com/alibaba/arthas/deps/io/netty/channel/nio/NioEventLoop.run (1 samples, 5.88%)</title><rect x="218.2" y="1091.0" width="69.4" height="15" fill="#60f160" rx="2" ry="2"/>
<text x="221.2" y="1102.0">com/ali..</text>
</g>
<g>
<title>com/alibaba/arthas/deps/io/netty/channel/nio/NioEventLoop.processSelectedKeys (1 samples, 5.88%)</title><rect x="218.2" y="1075.0" width="69.4" height="15" fill="#54e554" rx="2" ry="2"/>
<text x="221.2" y="1086.0">com/ali..</text>
</g>
<g>
<title>com/alibaba/arthas/deps/io/netty/channel/nio/NioEventLoop.processSelectedKeysOptimized (1 samples, 5.88%)</title><rect x="218.2" y="1059.0" width="69.4" height="15" fill="#6dfe6d" rx="2" ry="2"/>
<text x="221.2" y="1070.0">com/ali..</text>
</g>
<g>
<title>com/alibaba/arthas/deps/io/netty/channel/nio/NioEventLoop.processSelectedKey (1 samples, 5.88%)</title><rect x="218.2" y="1043.0" width="69.4" height="15" fill="#5ced5c" rx="2" ry="2"/>
<text x="221.2" y="1054.0">com/ali..</text>
</g>
<g>
<title>com/alibaba/arthas/deps/io/netty/channel/nio/AbstractNioByteChannel$NioByteUnsafe.read (1 samples, 5.88%)</title><rect x="218.2" y="1027.0" width="69.4" height="15" fill="#54e554" rx="2" ry="2"/>
<text x="221.2" y="1038.0">com/ali..</text>
</g>
<g>
<title>com/alibaba/arthas/deps/io/netty/channel/DefaultChannelPipeline.fireChannelRead (1 samples, 5.88%)</title><rect x="218.2" y="1011.0" width="69.4" height="15" fill="#60f160" rx="2" ry="2"/>
<text x="221.2" y="1022.0">com/ali..</text>
</g>
<g>
<title>com/alibaba/arthas/deps/io/netty/channel/AbstractChannelHandlerContext.invokeChannelRead (1 samples, 5.88%)</title><rect x="218.2" y="995.0" width="69.4" height="15" fill="#57e857" rx="2" ry="2"/>
<text x="221.2" y="1006.0">com/ali..</text>
</g>
<g>
<title>com/alibaba/arthas/deps/io/netty/channel/AbstractChannelHandlerContext.invokeChannelRead (1 samples, 5.88%)</title><rect x="218.2" y="979.0" width="69.4" height="15" fill="#5eef5e" rx="2" ry="2"/>
<text x="221.2" y="990.0">com/ali..</text>
</g>
<g>
<title>com/alibaba/arthas/deps/io/netty/channel/DefaultChannelPipeline$HeadContext.channelRead (1 samples, 5.88%)</title><rect x="218.2" y="963.0" width="69.4" height="15" fill="#5dee5d" rx="2" ry="2"/>
<text x="221.2" y="974.0">com/ali..</text>
</g>
<g>
<title>com/alibaba/arthas/deps/io/netty/channel/AbstractChannelHandlerContext.fireChannelRead (1 samples, 5.88%)</title><rect x="218.2" y="947.0" width="69.4" height="15" fill="#6cfd6c" rx="2" ry="2"/>
<text x="221.2" y="958.0">com/ali..</text>
</g>
<g>
<title>com/alibaba/arthas/deps/io/netty/channel/AbstractChannelHandlerContext.invokeChannelRead (1 samples, 5.88%)</title><rect x="218.2" y="931.0" width="69.4" height="15" fill="#53e453" rx="2" ry="2"/>
<text x="221.2" y="942.0">com/ali..</text>
</g>
<g>
<title>com/alibaba/arthas/deps/io/netty/channel/AbstractChannelHandlerContext.invokeChannelRead (1 samples, 5.88%)</title><rect x="218.2" y="915.0" width="69.4" height="15" fill="#55e655" rx="2" ry="2"/>
<text x="221.2" y="926.0">com/ali..</text>
</g>
<g>
<title>io/termd/core/telnet/netty/TelnetChannelHandler.channelRead (1 samples, 5.88%)</title><rect x="218.2" y="899.0" width="69.4" height="15" fill="#59ea59" rx="2" ry="2"/>
<text x="221.2" y="910.0">io/term..</text>
</g>
<g>
<title>io/termd/core/telnet/TelnetConnection.receive (1 samples, 5.88%)</title><rect x="218.2" y="883.0" width="69.4" height="15" fill="#62f362" rx="2" ry="2"/>
<text x="221.2" y="894.0">io/term..</text>
</g>
<g>
<title>io/termd/core/telnet/TelnetConnection.flushDataIfNecessary (1 samples, 5.88%)</title><rect x="218.2" y="867.0" width="69.4" height="15" fill="#53e453" rx="2" ry="2"/>
<text x="221.2" y="878.0">io/term..</text>
</g>
<g>
<title>io/termd/core/telnet/TelnetConnection.flushData (1 samples, 5.88%)</title><rect x="218.2" y="851.0" width="69.4" height="15" fill="#63f463" rx="2" ry="2"/>
<text x="221.2" y="862.0">io/term..</text>
</g>
<g>
<title>io/termd/core/telnet/TelnetTtyConnection.onData (1 samples, 5.88%)</title><rect x="218.2" y="835.0" width="69.4" height="15" fill="#62f362" rx="2" ry="2"/>
<text x="221.2" y="846.0">io/term..</text>
</g>
<g>
<title>io/termd/core/io/BinaryDecoder.write (1 samples, 5.88%)</title><rect x="218.2" y="819.0" width="69.4" height="15" fill="#68f968" rx="2" ry="2"/>
<text x="221.2" y="830.0">io/term..</text>
</g>
<g>
<title>io/termd/core/io/BinaryDecoder.write (1 samples, 5.88%)</title><rect x="218.2" y="803.0" width="69.4" height="15" fill="#57e857" rx="2" ry="2"/>
<text x="221.2" y="814.0">io/term..</text>
</g>
<g>
<title>io/termd/core/tty/ReadBuffer.accept (1 samples, 5.88%)</title><rect x="218.2" y="787.0" width="69.4" height="15" fill="#5eef5e" rx="2" ry="2"/>
<text x="221.2" y="798.0">io/term..</text>
</g>
<g>
<title>io/termd/core/tty/ReadBuffer.accept (1 samples, 5.88%)</title><rect x="218.2" y="771.0" width="69.4" height="15" fill="#5bec5b" rx="2" ry="2"/>
<text x="221.2" y="782.0">io/term..</text>
</g>
<g>
<title>io/termd/core/tty/TtyEventDecoder.accept (1 samples, 5.88%)</title><rect x="218.2" y="755.0" width="69.4" height="15" fill="#56e756" rx="2" ry="2"/>
<text x="221.2" y="766.0">io/term..</text>
</g>
<g>
<title>io/termd/core/tty/TtyEventDecoder.accept (1 samples, 5.88%)</title><rect x="218.2" y="739.0" width="69.4" height="15" fill="#50e150" rx="2" ry="2"/>
<text x="221.2" y="750.0">io/term..</text>
</g>
<g>
<title>io/termd/core/readline/Readline$Interaction$2.accept (1 samples, 5.88%)</title><rect x="218.2" y="723.0" width="69.4" height="15" fill="#6bfc6b" rx="2" ry="2"/>
<text x="221.2" y="734.0">io/term..</text>
</g>
<g>
<title>io/termd/core/readline/Readline$Interaction$2.accept (1 samples, 5.88%)</title><rect x="218.2" y="707.0" width="69.4" height="15" fill="#5ced5c" rx="2" ry="2"/>
<text x="221.2" y="718.0">io/term..</text>
</g>
<g>
<title>io/termd/core/readline/Readline.access$500 (1 samples, 5.88%)</title><rect x="218.2" y="691.0" width="69.4" height="15" fill="#54e554" rx="2" ry="2"/>
<text x="221.2" y="702.0">io/term..</text>
</g>
<g>
<title>io/termd/core/readline/Readline.deliver (1 samples, 5.88%)</title><rect x="218.2" y="675.0" width="69.4" height="15" fill="#6cfd6c" rx="2" ry="2"/>
<text x="221.2" y="686.0">io/term..</text>
</g>
<g>
<title>io/termd/core/readline/Readline$Interaction.access$200 (1 samples, 5.88%)</title><rect x="218.2" y="659.0" width="69.4" height="15" fill="#5ced5c" rx="2" ry="2"/>
<text x="221.2" y="670.0">io/term..</text>
</g>
<g>
<title>io/termd/core/readline/Readline$Interaction.handle (1 samples, 5.88%)</title><rect x="218.2" y="643.0" width="69.4" height="15" fill="#53e453" rx="2" ry="2"/>
<text x="221.2" y="654.0">io/term..</text>
</g>
<g>
<title>io/termd/core/readline/functions/Complete.apply (1 samples, 5.88%)</title><rect x="218.2" y="627.0" width="69.4" height="15" fill="#6afb6a" rx="2" ry="2"/>
<text x="221.2" y="638.0">io/term..</text>
</g>
<g>
<title>com/taobao/arthas/core/shell/term/impl/CompletionHandler.accept (1 samples, 5.88%)</title><rect x="218.2" y="611.0" width="69.4" height="15" fill="#52e352" rx="2" ry="2"/>
<text x="221.2" y="622.0">com/tao..</text>
</g>
<g>
<title>com/taobao/arthas/core/shell/term/impl/CompletionHandler.accept (1 samples, 5.88%)</title><rect x="218.2" y="595.0" width="69.4" height="15" fill="#54e554" rx="2" ry="2"/>
<text x="221.2" y="606.0">com/tao..</text>
</g>
<g>
<title>com/taobao/arthas/core/shell/handlers/shell/CommandManagerCompletionHandler.handle (1 samples, 5.88%)</title><rect x="218.2" y="579.0" width="69.4" height="15" fill="#52e352" rx="2" ry="2"/>
<text x="221.2" y="590.0">com/tao..</text>
</g>
<g>
<title>com/taobao/arthas/core/shell/handlers/shell/CommandManagerCompletionHandler.handle (1 samples, 5.88%)</title><rect x="218.2" y="563.0" width="69.4" height="15" fill="#5aeb5a" rx="2" ry="2"/>
<text x="221.2" y="574.0">com/tao..</text>
</g>
<g>
<title>com/taobao/arthas/core/shell/system/impl/InternalCommandManager.complete (1 samples, 5.88%)</title><rect x="218.2" y="547.0" width="69.4" height="15" fill="#57e857" rx="2" ry="2"/>
<text x="221.2" y="558.0">com/tao..</text>
</g>
<g>
<title>com/taobao/arthas/core/shell/system/impl/InternalCommandManager.completeSingleCommand (1 samples, 5.88%)</title><rect x="218.2" y="531.0" width="69.4" height="15" fill="#54e554" rx="2" ry="2"/>
<text x="221.2" y="542.0">com/tao..</text>
</g>
<g>
<title>com/taobao/arthas/core/shell/command/impl/AnnotatedCommandImpl.complete (1 samples, 5.88%)</title><rect x="218.2" y="515.0" width="69.4" height="15" fill="#67f867" rx="2" ry="2"/>
<text x="221.2" y="526.0">com/tao..</text>
</g>
<g>
<title>com/taobao/arthas/core/command/monitor200/ProfilerCommand.complete (1 samples, 5.88%)</title><rect x="218.2" y="499.0" width="69.4" height="15" fill="#5dee5d" rx="2" ry="2"/>
<text x="221.2" y="510.0">com/tao..</text>
</g>
<g>
<title>com/taobao/arthas/core/shell/cli/CompletionUtils.complete (1 samples, 5.88%)</title><rect x="218.2" y="483.0" width="69.4" height="15" fill="#5aeb5a" rx="2" ry="2"/>
<text x="221.2" y="494.0">com/tao..</text>
</g>
<g>
<title>com/taobao/arthas/core/shell/system/impl/CommandCompletion.complete (1 samples, 5.88%)</title><rect x="218.2" y="467.0" width="69.4" height="15" fill="#5dee5d" rx="2" ry="2"/>
<text x="221.2" y="478.0">com/tao..</text>
</g>
<g>
<title>com/taobao/arthas/core/shell/term/impl/CompletionAdaptor.complete (1 samples, 5.88%)</title><rect x="218.2" y="451.0" width="69.4" height="15" fill="#68f968" rx="2" ry="2"/>
<text x="221.2" y="462.0">com/tao..</text>
</g>
<g>
<title>io/termd/core/readline/Completion.suggest (1 samples, 5.88%)</title><rect x="218.2" y="435.0" width="69.4" height="15" fill="#6bfc6b" rx="2" ry="2"/>
<text x="221.2" y="446.0">io/term..</text>
</g>
<g>
<title>io/termd/core/readline/Completion.suggest (1 samples, 5.88%)</title><rect x="218.2" y="419.0" width="69.4" height="15" fill="#63f463" rx="2" ry="2"/>
<text x="221.2" y="430.0">io/term..</text>
</g>
<g>
<title>io/termd/core/tty/TtyOutputMode.accept (1 samples, 5.88%)</title><rect x="218.2" y="403.0" width="69.4" height="15" fill="#56e756" rx="2" ry="2"/>
<text x="221.2" y="414.0">io/term..</text>
</g>
<g>
<title>io/termd/core/tty/TtyOutputMode.accept (1 samples, 5.88%)</title><rect x="218.2" y="387.0" width="69.4" height="15" fill="#64f564" rx="2" ry="2"/>
<text x="221.2" y="398.0">io/term..</text>
</g>
<g>
<title>io/termd/core/tty/TtyOutputMode.sendChunk (1 samples, 5.88%)</title><rect x="218.2" y="371.0" width="69.4" height="15" fill="#6bfc6b" rx="2" ry="2"/>
<text x="221.2" y="382.0">io/term..</text>
</g>
<g>
<title>io/termd/core/io/BinaryEncoder.accept (1 samples, 5.88%)</title><rect x="218.2" y="355.0" width="69.4" height="15" fill="#57e857" rx="2" ry="2"/>
<text x="221.2" y="366.0">io/term..</text>
</g>
<g>
<title>io/termd/core/io/BinaryEncoder.accept (1 samples, 5.88%)</title><rect x="218.2" y="339.0" width="69.4" height="15" fill="#69fa69" rx="2" ry="2"/>
<text x="221.2" y="350.0">io/term..</text>
</g>
<g>
<title>io/termd/core/telnet/TelnetTtyConnection$2.accept (1 samples, 5.88%)</title><rect x="218.2" y="323.0" width="69.4" height="15" fill="#5eef5e" rx="2" ry="2"/>
<text x="221.2" y="334.0">io/term..</text>
</g>
<g>
<title>io/termd/core/telnet/TelnetTtyConnection$2.accept (1 samples, 5.88%)</title><rect x="218.2" y="307.0" width="69.4" height="15" fill="#5ff05f" rx="2" ry="2"/>
<text x="221.2" y="318.0">io/term..</text>
</g>
<g>
<title>io/termd/core/telnet/TelnetConnection.write (1 samples, 5.88%)</title><rect x="218.2" y="291.0" width="69.4" height="15" fill="#62f362" rx="2" ry="2"/>
<text x="221.2" y="302.0">io/term..</text>
</g>
<g>
<title>io/termd/core/telnet/netty/NettyTelnetConnection.send (1 samples, 5.88%)</title><rect x="218.2" y="275.0" width="69.4" height="15" fill="#68f968" rx="2" ry="2"/>
<text x="221.2" y="286.0">io/term..</text>
</g>
<g>
<title>com/alibaba/arthas/deps/io/netty/channel/AbstractChannelHandlerContext.writeAndFlush (1 samples, 5.88%)</title><rect x="218.2" y="259.0" width="69.4" height="15" fill="#66f766" rx="2" ry="2"/>
<text x="221.2" y="270.0">com/ali..</text>
</g>
<g>
<title>com/alibaba/arthas/deps/io/netty/channel/AbstractChannelHandlerContext.writeAndFlush (1 samples, 5.88%)</title><rect x="218.2" y="243.0" width="69.4" height="15" fill="#5dee5d" rx="2" ry="2"/>
<text x="221.2" y="254.0">com/ali..</text>
</g>
<g>
<title>com/alibaba/arthas/deps/io/netty/channel/AbstractChannelHandlerContext.write (1 samples, 5.88%)</title><rect x="218.2" y="227.0" width="69.4" height="15" fill="#6cfd6c" rx="2" ry="2"/>
<text x="221.2" y="238.0">com/ali..</text>
</g>
<g>
<title>com/alibaba/arthas/deps/io/netty/channel/AbstractChannelHandlerContext.invokeWriteAndFlush (1 samples, 5.88%)</title><rect x="218.2" y="211.0" width="69.4" height="15" fill="#62f362" rx="2" ry="2"/>
<text x="221.2" y="222.0">com/ali..</text>
</g>
<g>
<title>com/alibaba/arthas/deps/io/netty/channel/AbstractChannelHandlerContext.invokeFlush0 (1 samples, 5.88%)</title><rect x="218.2" y="195.0" width="69.4" height="15" fill="#5dee5d" rx="2" ry="2"/>
<text x="221.2" y="206.0">com/ali..</text>
</g>
<g>
<title>com/alibaba/arthas/deps/io/netty/channel/DefaultChannelPipeline$HeadContext.flush (1 samples, 5.88%)</title><rect x="218.2" y="179.0" width="69.4" height="15" fill="#68f968" rx="2" ry="2"/>
<text x="221.2" y="190.0">com/ali..</text>
</g>
<g>
<title>com/alibaba/arthas/deps/io/netty/channel/AbstractChannel$AbstractUnsafe.flush (1 samples, 5.88%)</title><rect x="218.2" y="163.0" width="69.4" height="15" fill="#64f564" rx="2" ry="2"/>
<text x="221.2" y="174.0">com/ali..</text>
</g>
<g>
<title>com/alibaba/arthas/deps/io/netty/channel/nio/AbstractNioChannel$AbstractNioUnsafe.flush0 (1 samples, 5.88%)</title><rect x="218.2" y="147.0" width="69.4" height="15" fill="#65f665" rx="2" ry="2"/>
<text x="221.2" y="158.0">com/ali..</text>
</g>
<g>
<title>com/alibaba/arthas/deps/io/netty/channel/AbstractChannel$AbstractUnsafe.flush0 (1 samples, 5.88%)</title><rect x="218.2" y="131.0" width="69.4" height="15" fill="#6dfe6d" rx="2" ry="2"/>
<text x="221.2" y="142.0">com/ali..</text>
</g>
<g>
<title>com/alibaba/arthas/deps/io/netty/channel/socket/nio/NioSocketChannel.doWrite (1 samples, 5.88%)</title><rect x="218.2" y="115.0" width="69.4" height="15" fill="#6cfd6c" rx="2" ry="2"/>
<text x="221.2" y="126.0">com/ali..</text>
</g>
<g>
<title>com/alibaba/arthas/deps/io/netty/channel/ChannelOutboundBuffer.removeBytes (1 samples, 5.88%)</title><rect x="218.2" y="99.0" width="69.4" height="15" fill="#69fa69" rx="2" ry="2"/>
<text x="221.2" y="110.0">com/ali..</text>
</g>
<g>
<title>com/alibaba/arthas/deps/io/netty/channel/ChannelOutboundBuffer.remove (1 samples, 5.88%)</title><rect x="218.2" y="83.0" width="69.4" height="15" fill="#58e958" rx="2" ry="2"/>
<text x="221.2" y="94.0">com/ali..</text>
</g>
<g>
<title>com/alibaba/arthas/deps/io/netty/channel/ChannelOutboundBuffer$Entry.recycle (1 samples, 5.88%)</title><rect x="218.2" y="67.0" width="69.4" height="15" fill="#60f160" rx="2" ry="2"/>
<text x="221.2" y="78.0">com/ali..</text>
</g>
<g>
<title>com/alibaba/arthas/deps/io/netty/util/Recycler$DefaultHandle.recycle (1 samples, 5.88%)</title><rect x="218.2" y="51.0" width="69.4" height="15" fill="#5ff05f" rx="2" ry="2"/>
<text x="221.2" y="62.0">com/ali..</text>
</g>
<g>
<title>com/alibaba/arthas/deps/io/netty/util/Recycler$Stack.push (1 samples, 5.88%)</title><rect x="218.2" y="35.0" width="69.4" height="15" fill="#53e453" rx="2" ry="2"/>
<text x="221.2" y="46.0">com/ali..</text>
</g>
<g>
<title>java/util/concurrent/ThreadPoolExecutor$Worker.run (4 samples, 23.53%)</title><rect x="287.6" y="1139.0" width="277.7" height="15" fill="#5ced5c" rx="2" ry="2"/>
<text x="290.6" y="1150.0">java/util/concurrent/ThreadPoolExecut..</text>
</g>
<g>
<title>java/util/concurrent/ThreadPoolExecutor.runWorker (4 samples, 23.53%)</title><rect x="287.6" y="1123.0" width="277.7" height="15" fill="#61f261" rx="2" ry="2"/>
<text x="290.6" y="1134.0">java/util/concurrent/ThreadPoolExecut..</text>
</g>
<g>
<title>java/util/concurrent/ScheduledThreadPoolExecutor$ScheduledFutureTask.run (2 samples, 11.76%)</title><rect x="287.6" y="1107.0" width="138.9" height="15" fill="#6afb6a" rx="2" ry="2"/>
<text x="290.6" y="1118.0">java/util/concurr..</text>
</g>
<g>
<title>java/util/concurrent/ScheduledThreadPoolExecutor$ScheduledFutureTask.access$201 (2 samples, 11.76%)</title><rect x="287.6" y="1091.0" width="138.9" height="15" fill="#5dee5d" rx="2" ry="2"/>
<text x="290.6" y="1102.0">java/util/concurr..</text>
</g>
<g>
<title>java/util/concurrent/FutureTask.run (2 samples, 11.76%)</title><rect x="287.6" y="1075.0" width="138.9" height="15" fill="#65f665" rx="2" ry="2"/>
<text x="290.6" y="1086.0">java/util/concurr..</text>
</g>
<g>
<title>java/util/concurrent/Executors$RunnableAdapter.call (2 samples, 11.76%)</title><rect x="287.6" y="1059.0" width="138.9" height="15" fill="#6afb6a" rx="2" ry="2"/>
<text x="290.6" y="1070.0">java/util/concurr..</text>
</g>
<g>
<title>com/taobao/arthas/core/shell/system/impl/ProcessImpl$CommandProcessTask.run (2 samples, 11.76%)</title><rect x="287.6" y="1043.0" width="138.9" height="15" fill="#65f665" rx="2" ry="2"/>
<text x="290.6" y="1054.0">com/taobao/arthas..</text>
</g>
<g>
<title>com/taobao/arthas/core/shell/command/impl/AnnotatedCommandImpl$ProcessHandler.handle (2 samples, 11.76%)</title><rect x="287.6" y="1027.0" width="138.9" height="15" fill="#68f968" rx="2" ry="2"/>
<text x="290.6" y="1038.0">com/taobao/arthas..</text>
</g>
<g>
<title>com/taobao/arthas/core/shell/command/impl/AnnotatedCommandImpl$ProcessHandler.handle (2 samples, 11.76%)</title><rect x="287.6" y="1011.0" width="138.9" height="15" fill="#65f665" rx="2" ry="2"/>
<text x="290.6" y="1022.0">com/taobao/arthas..</text>
</g>
<g>
<title>com/taobao/arthas/core/shell/command/impl/AnnotatedCommandImpl.access$100 (2 samples, 11.76%)</title><rect x="287.6" y="995.0" width="138.9" height="15" fill="#66f766" rx="2" ry="2"/>
<text x="290.6" y="1006.0">com/taobao/arthas..</text>
</g>
<g>
<title>com/taobao/arthas/core/shell/command/impl/AnnotatedCommandImpl.process (2 samples, 11.76%)</title><rect x="287.6" y="979.0" width="138.9" height="15" fill="#50e150" rx="2" ry="2"/>
<text x="290.6" y="990.0">com/taobao/arthas..</text>
</g>
<g>
<title>com/taobao/arthas/core/command/monitor200/ProfilerCommand.process (2 samples, 11.76%)</title><rect x="287.6" y="963.0" width="138.9" height="15" fill="#6afb6a" rx="2" ry="2"/>
<text x="290.6" y="974.0">com/taobao/arthas..</text>
</g>
<g>
<title>com/taobao/arthas/core/shell/system/impl/ProcessImpl$CommandProcessImpl.appendResult (1 samples, 5.88%)</title><rect x="287.6" y="947.0" width="69.5" height="15" fill="#5ff05f" rx="2" ry="2"/>
<text x="290.6" y="958.0">com/tao..</text>
</g>
<g>
<title>com/taobao/arthas/core/shell/system/impl/ProcessImpl.access$2100 (1 samples, 5.88%)</title><rect x="287.6" y="931.0" width="69.5" height="15" fill="#5dee5d" rx="2" ry="2"/>
<text x="290.6" y="942.0">com/tao..</text>
</g>
<g>
<title>com/taobao/arthas/core/shell/system/impl/ProcessImpl.appendResult (1 samples, 5.88%)</title><rect x="287.6" y="915.0" width="69.5" height="15" fill="#51e251" rx="2" ry="2"/>
<text x="290.6" y="926.0">com/tao..</text>
</g>
<g>
<title>com/taobao/arthas/core/distribution/impl/TermResultDistributorImpl.appendResult (1 samples, 5.88%)</title><rect x="287.6" y="899.0" width="69.5" height="15" fill="#65f665" rx="2" ry="2"/>
<text x="290.6" y="910.0">com/tao..</text>
</g>
<g>
<title>com/taobao/arthas/core/command/view/ProfilerView.draw (1 samples, 5.88%)</title><rect x="287.6" y="883.0" width="69.5" height="15" fill="#5eef5e" rx="2" ry="2"/>
<text x="290.6" y="894.0">com/tao..</text>
</g>
<g>
<title>com/taobao/arthas/core/command/view/ProfilerView.draw (1 samples, 5.88%)</title><rect x="287.6" y="867.0" width="69.5" height="15" fill="#64f564" rx="2" ry="2"/>
<text x="290.6" y="878.0">com/tao..</text>
</g>
<g>
<title>com/taobao/arthas/core/command/view/ProfilerView.drawExecuteResult (1 samples, 5.88%)</title><rect x="287.6" y="851.0" width="69.5" height="15" fill="#64f564" rx="2" ry="2"/>
<text x="290.6" y="862.0">com/tao..</text>
</g>
<g>
<title>com/taobao/arthas/core/shell/system/impl/ProcessImpl$CommandProcessImpl.write (1 samples, 5.88%)</title><rect x="287.6" y="835.0" width="69.5" height="15" fill="#55e655" rx="2" ry="2"/>
<text x="290.6" y="846.0">com/tao..</text>
</g>
<g>
<title>InterpreterRuntime::monitorenter(JavaThread*, BasicObjectLock*) (1 samples, 5.88%)</title><rect x="287.6" y="819.0" width="69.5" height="15" fill="#e3e345" rx="2" ry="2"/>
<text x="290.6" y="830.0">Interpr..</text>
</g>
<g>
<title>ObjectSynchronizer::fast_enter(Handle, BasicLock*, bool, Thread*) (1 samples, 5.88%)</title><rect x="287.6" y="803.0" width="69.5" height="15" fill="#e1e144" rx="2" ry="2"/>
<text x="290.6" y="814.0">ObjectS..</text>
</g>
<g>
<title>BiasedLocking::revoke_and_rebias(Handle, bool, Thread*) (1 samples, 5.88%)</title><rect x="287.6" y="787.0" width="69.5" height="15" fill="#e2e244" rx="2" ry="2"/>
<text x="290.6" y="798.0">BiasedL..</text>
</g>
<g>
<title>VMThread::execute(VM_Operation*) (1 samples, 5.88%)</title><rect x="287.6" y="771.0" width="69.5" height="15" fill="#d8d841" rx="2" ry="2"/>
<text x="290.6" y="782.0">VMThrea..</text>
</g>
<g>
<title>Monitor::wait(bool, long, bool) (1 samples, 5.88%)</title><rect x="287.6" y="755.0" width="69.5" height="15" fill="#cccc3d" rx="2" ry="2"/>
<text x="290.6" y="766.0">Monitor..</text>
</g>
<g>
<title>Monitor::IWait(Thread*, long) (1 samples, 5.88%)</title><rect x="287.6" y="739.0" width="69.5" height="15" fill="#d5d540" rx="2" ry="2"/>
<text x="290.6" y="750.0">Monitor..</text>
</g>
<g>
<title>ParkCommon(ParkEvent*, long) (1 samples, 5.88%)</title><rect x="287.6" y="723.0" width="69.5" height="15" fill="#fe8181" rx="2" ry="2"/>
<text x="290.6" y="734.0">ParkCom..</text>
</g>
<g>
<title>os::PlatformEvent::park() (1 samples, 5.88%)</title><rect x="287.6" y="707.0" width="69.5" height="15" fill="#cece3e" rx="2" ry="2"/>
<text x="290.6" y="718.0">os::Pla..</text>
</g>
<g>
<title>__psynch_cvwait (1 samples, 5.88%)</title><rect x="287.6" y="691.0" width="69.5" height="15" fill="#ee6b6b" rx="2" ry="2"/>
<text x="290.6" y="702.0">__psync..</text>
</g>
<g>
<title>com/taobao/arthas/core/shell/system/impl/ProcessImpl$CommandProcessImpl.end (1 samples, 5.88%)</title><rect x="357.1" y="947.0" width="69.4" height="15" fill="#59ea59" rx="2" ry="2"/>
<text x="360.1" y="958.0">com/tao..</text>
</g>
<g>
<title>com/taobao/arthas/core/shell/system/impl/ProcessImpl$CommandProcessImpl.end (1 samples, 5.88%)</title><rect x="357.1" y="931.0" width="69.4" height="15" fill="#5ff05f" rx="2" ry="2"/>
<text x="360.1" y="942.0">com/tao..</text>
</g>
<g>
<title>com/taobao/arthas/core/shell/system/impl/ProcessImpl$CommandProcessImpl.end (1 samples, 5.88%)</title><rect x="357.1" y="915.0" width="69.4" height="15" fill="#6afb6a" rx="2" ry="2"/>
<text x="360.1" y="926.0">com/tao..</text>
</g>
<g>
<title>com/taobao/arthas/core/shell/system/impl/ProcessImpl.access$2000 (1 samples, 5.88%)</title><rect x="357.1" y="899.0" width="69.4" height="15" fill="#5dee5d" rx="2" ry="2"/>
<text x="360.1" y="910.0">com/tao..</text>
</g>
<g>
<title>com/taobao/arthas/core/shell/system/impl/ProcessImpl.terminate (1 samples, 5.88%)</title><rect x="357.1" y="883.0" width="69.4" height="15" fill="#5eef5e" rx="2" ry="2"/>
<text x="360.1" y="894.0">com/tao..</text>
</g>
<g>
<title>com/taobao/arthas/core/shell/system/impl/ProcessImpl.updateStatus (1 samples, 5.88%)</title><rect x="357.1" y="867.0" width="69.4" height="15" fill="#68f968" rx="2" ry="2"/>
<text x="360.1" y="878.0">com/tao..</text>
</g>
<g>
<title>com/taobao/arthas/core/shell/system/impl/JobImpl$TerminatedHandler.handle (1 samples, 5.88%)</title><rect x="357.1" y="851.0" width="69.4" height="15" fill="#5aeb5a" rx="2" ry="2"/>
<text x="360.1" y="862.0">com/tao..</text>
</g>
<g>
<title>com/taobao/arthas/core/shell/system/impl/JobImpl$TerminatedHandler.handle (1 samples, 5.88%)</title><rect x="357.1" y="835.0" width="69.4" height="15" fill="#56e756" rx="2" ry="2"/>
<text x="360.1" y="846.0">com/tao..</text>
</g>
<g>
<title>com/taobao/arthas/core/shell/impl/ShellImpl$ShellJobHandler.onTerminated (1 samples, 5.88%)</title><rect x="357.1" y="819.0" width="69.4" height="15" fill="#6dfe6d" rx="2" ry="2"/>
<text x="360.1" y="830.0">com/tao..</text>
</g>
<g>
<title>com/taobao/arthas/core/util/FileUtils.saveCommandHistory (1 samples, 5.88%)</title><rect x="357.1" y="803.0" width="69.4" height="15" fill="#54e554" rx="2" ry="2"/>
<text x="360.1" y="814.0">com/tao..</text>
</g>
<g>
<title>java/io/FilterOutputStream.close (1 samples, 5.88%)</title><rect x="357.1" y="787.0" width="69.4" height="15" fill="#62f362" rx="2" ry="2"/>
<text x="360.1" y="798.0">java/io..</text>
</g>
<g>
<title>java/io/FileOutputStream.close (1 samples, 5.88%)</title><rect x="357.1" y="771.0" width="69.4" height="15" fill="#62f362" rx="2" ry="2"/>
<text x="360.1" y="782.0">java/io..</text>
</g>
<g>
<title>java/io/FileDescriptor.closeAll (1 samples, 5.88%)</title><rect x="357.1" y="755.0" width="69.4" height="15" fill="#50e150" rx="2" ry="2"/>
<text x="360.1" y="766.0">java/io..</text>
</g>
<g>
<title>java/io/FileOutputStream$1.close (1 samples, 5.88%)</title><rect x="357.1" y="739.0" width="69.4" height="15" fill="#50e150" rx="2" ry="2"/>
<text x="360.1" y="750.0">java/io..</text>
</g>
<g>
<title>java/io/FileOutputStream.access$000 (1 samples, 5.88%)</title><rect x="357.1" y="723.0" width="69.4" height="15" fill="#67f867" rx="2" ry="2"/>
<text x="360.1" y="734.0">java/io..</text>
</g>
<g>
<title>java/io/FileOutputStream.close0 (1 samples, 5.88%)</title><rect x="357.1" y="707.0" width="69.4" height="15" fill="#65f665" rx="2" ry="2"/>
<text x="360.1" y="718.0">java/io..</text>
</g>
<g>
<title>rcmd_af.canonnamebuf (1 samples, 5.88%)</title><rect x="357.1" y="691.0" width="69.4" height="15" fill="#ea6666" rx="2" ry="2"/>
<text x="360.1" y="702.0">rcmd_af..</text>
</g>
<g>
<title>java/util/concurrent/ThreadPoolExecutor.getTask (2 samples, 11.76%)</title><rect x="426.5" y="1107.0" width="138.8" height="15" fill="#5ced5c" rx="2" ry="2"/>
<text x="429.5" y="1118.0">java/util/concurr..</text>
</g>
<g>
<title>java/util/concurrent/ScheduledThreadPoolExecutor$DelayedWorkQueue.take (2 samples, 11.76%)</title><rect x="426.5" y="1091.0" width="138.8" height="15" fill="#64f564" rx="2" ry="2"/>
<text x="429.5" y="1102.0">java/util/concurr..</text>
</g>
<g>
<title>java/util/concurrent/ScheduledThreadPoolExecutor$DelayedWorkQueue.take (2 samples, 11.76%)</title><rect x="426.5" y="1075.0" width="138.8" height="15" fill="#64f564" rx="2" ry="2"/>
<text x="429.5" y="1086.0">java/util/concurr..</text>
</g>
<g>
<title>java/util/concurrent/locks/AbstractQueuedSynchronizer$ConditionObject.awaitNanos (2 samples, 11.76%)</title><rect x="426.5" y="1059.0" width="138.8" height="15" fill="#56e756" rx="2" ry="2"/>
<text x="429.5" y="1070.0">java/util/concurr..</text>
</g>
<g>
<title>java/util/concurrent/locks/LockSupport.parkNanos (2 samples, 11.76%)</title><rect x="426.5" y="1043.0" width="138.8" height="15" fill="#69fa69" rx="2" ry="2"/>
<text x="429.5" y="1054.0">java/util/concurr..</text>
</g>
<g>
<title>sun/misc/Unsafe.park (2 samples, 11.76%)</title><rect x="426.5" y="1027.0" width="138.8" height="15" fill="#65f665" rx="2" ry="2"/>
<text x="429.5" y="1038.0">sun/misc/Unsafe.p..</text>
</g>
<g>
<title>Unsafe_Park (2 samples, 11.76%)</title><rect x="426.5" y="1011.0" width="138.8" height="15" fill="#f97b7b" rx="2" ry="2"/>
<text x="429.5" y="1022.0">Unsafe_Park</text>
</g>
<g>
<title>JavaThreadParkedState::JavaThreadParkedState(JavaThread*, bool) (1 samples, 5.88%)</title><rect x="426.5" y="995.0" width="69.4" height="15" fill="#caca3c" rx="2" ry="2"/>
<text x="429.5" y="1006.0">JavaThr..</text>
</g>
<g>
<title>Parker::park(bool, long) (1 samples, 5.88%)</title><rect x="495.9" y="995.0" width="69.4" height="15" fill="#caca3c" rx="2" ry="2"/>
<text x="498.9" y="1006.0">Parker:..</text>
</g>
<g>
<title>__psynch_cvwait (1 samples, 5.88%)</title><rect x="495.9" y="979.0" width="69.4" height="15" fill="#f77878" rx="2" ry="2"/>
<text x="498.9" y="990.0">__psync..</text>
</g>
<g>
<title>thread_start (9 samples, 52.94%)</title><rect x="565.3" y="1155.0" width="624.7" height="15" fill="#f37373" rx="2" ry="2"/>
<text x="568.3" y="1166.0">thread_start</text>
</g>
<g>
<title>_pthread_start (9 samples, 52.94%)</title><rect x="565.3" y="1139.0" width="624.7" height="15" fill="#e76262" rx="2" ry="2"/>
<text x="568.3" y="1150.0">_pthread_start</text>
</g>
<g>
<title>_pthread_body (9 samples, 52.94%)</title><rect x="565.3" y="1123.0" width="624.7" height="15" fill="#e76262" rx="2" ry="2"/>
<text x="568.3" y="1134.0">_pthread_body</text>
</g>
<g>
<title>java_start(Thread*) (9 samples, 52.94%)</title><rect x="565.3" y="1107.0" width="624.7" height="15" fill="#e35d5d" rx="2" ry="2"/>
<text x="568.3" y="1118.0">java_start(Thread*)</text>
</g>
<g>
<title>JavaThread::run() (5 samples, 29.41%)</title><rect x="565.3" y="1091.0" width="347.1" height="15" fill="#d3d33f" rx="2" ry="2"/>
<text x="568.3" y="1102.0">JavaThread::run()</text>
</g>
<g>
<title>JavaThread::thread_main_inner() (5 samples, 29.41%)</title><rect x="565.3" y="1075.0" width="347.1" height="15" fill="#e4e445" rx="2" ry="2"/>
<text x="568.3" y="1086.0">JavaThread::thread_main_inner()</text>
</g>
<g>
<title>CompileBroker::compiler_thread_loop() (4 samples, 23.53%)</title><rect x="565.3" y="1059.0" width="277.6" height="15" fill="#e4e445" rx="2" ry="2"/>
<text x="568.3" y="1070.0">CompileBroker::compiler_thread_loop()</text>
</g>
<g>
<title>CompileQueue::get() (4 samples, 23.53%)</title><rect x="565.3" y="1043.0" width="277.6" height="15" fill="#d3d33f" rx="2" ry="2"/>
<text x="568.3" y="1054.0">CompileQueue::get()</text>
</g>
<g>
<title>Monitor::wait(bool, long, bool) (3 samples, 17.65%)</title><rect x="565.3" y="1027.0" width="208.2" height="15" fill="#d0d03e" rx="2" ry="2"/>
<text x="568.3" y="1038.0">Monitor::wait(bool, long, b..</text>
</g>
<g>
<title>Monitor::IWait(Thread*, long) (3 samples, 17.65%)</title><rect x="565.3" y="1011.0" width="208.2" height="15" fill="#dcdc42" rx="2" ry="2"/>
<text x="568.3" y="1022.0">Monitor::IWait(Thread*, long)</text>
</g>
<g>
<title>ParkCommon(ParkEvent*, long) (1 samples, 5.88%)</title><rect x="565.3" y="995.0" width="69.4" height="15" fill="#e96565" rx="2" ry="2"/>
<text x="568.3" y="1006.0">ParkCom..</text>
</g>
<g>
<title>os::PlatformEvent::park() (1 samples, 5.88%)</title><rect x="565.3" y="979.0" width="69.4" height="15" fill="#dfdf43" rx="2" ry="2"/>
<text x="568.3" y="990.0">os::Pla..</text>
</g>
<g>
<title>__psynch_cvwait (1 samples, 5.88%)</title><rect x="565.3" y="963.0" width="69.4" height="15" fill="#f87979" rx="2" ry="2"/>
<text x="568.3" y="974.0">__psync..</text>
</g>
<g>
<title>os::PlatformEvent::park(long) (2 samples, 11.76%)</title><rect x="634.7" y="995.0" width="138.8" height="15" fill="#d4d440" rx="2" ry="2"/>
<text x="637.7" y="1006.0">os::PlatformEvent..</text>
</g>
<g>
<title>__psynch_cvwait (2 samples, 11.76%)</title><rect x="634.7" y="979.0" width="138.8" height="15" fill="#e96565" rx="2" ry="2"/>
<text x="637.7" y="990.0">__psynch_cvwait</text>
</g>
<g>
<title>os::PlatformEvent::unpark() (1 samples, 5.88%)</title><rect x="773.5" y="1027.0" width="69.4" height="15" fill="#cdcd3d" rx="2" ry="2"/>
<text x="776.5" y="1038.0">os::Pla..</text>
</g>
<g>
<title>__psynch_cvsignal (1 samples, 5.88%)</title><rect x="773.5" y="1011.0" width="69.4" height="15" fill="#e15a5a" rx="2" ry="2"/>
<text x="776.5" y="1022.0">__psync..</text>
</g>
<g>
<title>ServiceThread::service_thread_entry(JavaThread*, Thread*) (1 samples, 5.88%)</title><rect x="842.9" y="1059.0" width="69.5" height="15" fill="#cdcd3d" rx="2" ry="2"/>
<text x="845.9" y="1070.0">Service..</text>
</g>
<g>
<title>Monitor::wait(bool, long, bool) (1 samples, 5.88%)</title><rect x="842.9" y="1043.0" width="69.5" height="15" fill="#e5e545" rx="2" ry="2"/>
<text x="845.9" y="1054.0">Monitor..</text>
</g>
<g>
<title>Monitor::IWait(Thread*, long) (1 samples, 5.88%)</title><rect x="842.9" y="1027.0" width="69.5" height="15" fill="#cfcf3e" rx="2" ry="2"/>
<text x="845.9" y="1038.0">Monitor..</text>
</g>
<g>
<title>ParkCommon(ParkEvent*, long) (1 samples, 5.88%)</title><rect x="842.9" y="1011.0" width="69.5" height="15" fill="#f97a7a" rx="2" ry="2"/>
<text x="845.9" y="1022.0">ParkCom..</text>
</g>
<g>
<title>os::PlatformEvent::park() (1 samples, 5.88%)</title><rect x="842.9" y="995.0" width="69.5" height="15" fill="#cccc3d" rx="2" ry="2"/>
<text x="845.9" y="1006.0">os::Pla..</text>
</g>
<g>
<title>__psynch_cvwait (1 samples, 5.88%)</title><rect x="842.9" y="979.0" width="69.5" height="15" fill="#ec6969" rx="2" ry="2"/>
<text x="845.9" y="990.0">__psync..</text>
</g>
<g>
<title>WatcherThread::run() (4 samples, 23.53%)</title><rect x="912.4" y="1091.0" width="277.6" height="15" fill="#dada42" rx="2" ry="2"/>
<text x="915.4" y="1102.0">WatcherThread::run()</text>
</g>
<g>
<title>PeriodicTask::real_time_tick(int) (1 samples, 5.88%)</title><rect x="912.4" y="1075.0" width="69.4" height="15" fill="#cdcd3d" rx="2" ry="2"/>
<text x="915.4" y="1086.0">Periodi..</text>
</g>
<g>
<title>PerfLongVariant::sample() (1 samples, 5.88%)</title><rect x="912.4" y="1059.0" width="69.4" height="15" fill="#e0e044" rx="2" ry="2"/>
<text x="915.4" y="1070.0">PerfLon..</text>
</g>
<g>
<title>WatcherThread::sleep() const (3 samples, 17.65%)</title><rect x="981.8" y="1075.0" width="208.2" height="15" fill="#cccc3d" rx="2" ry="2"/>
<text x="984.8" y="1086.0">WatcherThread::sleep() const</text>
</g>
<g>
<title>Monitor::wait(bool, long, bool) (3 samples, 17.65%)</title><rect x="981.8" y="1059.0" width="208.2" height="15" fill="#e5e545" rx="2" ry="2"/>
<text x="984.8" y="1070.0">Monitor::wait(bool, long, b..</text>
</g>
<g>
<title>Monitor::IWait(Thread*, long) (3 samples, 17.65%)</title><rect x="981.8" y="1043.0" width="208.2" height="15" fill="#cfcf3e" rx="2" ry="2"/>
<text x="984.8" y="1054.0">Monitor::IWait(Thread*, long)</text>
</g>
<g>
<title>os::PlatformEvent::park(long) (2 samples, 11.76%)</title><rect x="1051.2" y="1027.0" width="138.8" height="15" fill="#cfcf3e" rx="2" ry="2"/>
<text x="1054.2" y="1038.0">os::PlatformEvent..</text>
</g>
<g>
<title>__psynch_cvwait (2 samples, 11.76%)</title><rect x="1051.2" y="1011.0" width="138.8" height="15" fill="#e45e5e" rx="2" ry="2"/>
<text x="1054.2" y="1022.0">__psynch_cvwait</text>
</g>
</g>
</svg>
